<?xml version="1.0" standalone="no"?><!DOCTYPE svg PUBLIC "-//W3C//DTD SVG 1.1//EN" "http://www.w3.org/Graphics/SVG/1.1/DTD/svg11.dtd"><svg t="1728645529680" class="icon" viewBox="0 0 1024 1024" version="1.1" xmlns="http://www.w3.org/2000/svg" p-id="3419" xmlns:xlink="http://www.w3.org/1999/xlink" width="200" height="200"><path d="M939.2 43.2H84.8C38.4 43.2 0 81.6 0 128v128c0 46.4 38.4 84.8 84.8 84.8V896c0 46.4 38.4 84.8 84.8 84.8h683.2c46.4 0 84.8-38.4 84.8-84.8V340.8c46.4 0 84.8-38.4 84.8-84.8V128c1.6-46.4-36.8-84.8-83.2-84.8zM852.8 896H171.2V340.8h683.2V896z m-768-640V128h852.8v128H84.8z" p-id="3420"></path><path d="M384 724.8h256c46.4 0 84.8-38.4 84.8-84.8v-84.8c0-46.4-38.4-84.8-84.8-84.8H384c-46.4 0-84.8 38.4-84.8 84.8V640c0 46.4 38.4 84.8 84.8 84.8z m0-169.6h256V640H384v-84.8z" p-id="3421"></path></svg>