<?xml version="1.0" standalone="no"?><!DOCTYPE svg PUBLIC "-//W3C//DTD SVG 1.1//EN" "http://www.w3.org/Graphics/SVG/1.1/DTD/svg11.dtd"><svg t="1727684935465" class="icon" viewBox="0 0 1052 1024" version="1.1" xmlns="http://www.w3.org/2000/svg" p-id="660" xmlns:xlink="http://www.w3.org/1999/xlink" width="205.46875" height="200"><path d="M526.22193 511.999716m-511.999716 0a511.999716 511.999716 0 1 0 1023.999431 0 511.999716 511.999716 0 1 0-1023.999431 0Z" fill="#EDF6FD" p-id="661" data-spm-anchor-id="a313x.manage_type_mylikes.0.i4.50c83a81HAjhgX" class=""></path><path d="M285.439841 963.981687a270.222072 270.222072 0 0 1 240.782089-147.455918 270.222072 270.222072 0 0 1 240.782088 147.427473A509.724161 509.724161 0 0 1 526.22193 1023.999431a509.724161 509.724161 0 0 1-240.782089-60.017744z" fill="#616B3E" p-id="662" data-spm-anchor-id="a313x.manage_type_mylikes.0.i2.50c83a81HAjhgX" class=""></path><path d="M284.444286 540.444144m-56.888857 0a56.888857 56.888857 0 1 0 113.777715 0 56.888857 56.888857 0 1 0-113.777715 0Z" fill="#F4A68F" p-id="663"></path><path d="M767.999573 540.444144m-56.888857 0a56.888857 56.888857 0 1 0 113.777715 0 56.888857 56.888857 0 1 0-113.777715 0Z" fill="#F4A68F" p-id="664"></path><path d="M312.888715 767.999573m56.888857 0l312.888715 0q56.888857 0 56.888858 56.888858l0 0q0 56.888857-56.888858 56.888857l-312.888715 0q-56.888857 0-56.888857-56.888857l0 0q0-56.888857 56.888857-56.888858Z" fill="#515151" p-id="665" data-spm-anchor-id="a313x.manage_type_mylikes.0.i1.50c83a81HAjhgX" class="selected"></path><path d="M312.888715 739.555145m56.888857 0l312.888715 0q56.888857 0 56.888858 56.888857l0 0q0 56.888857-56.888858 56.888857l-312.888715 0q-56.888857 0-56.888857-56.888857l0 0q0-56.888857 56.888857-56.888857Z" fill="#91C554" p-id="666" data-spm-anchor-id="a313x.manage_type_mylikes.0.i3.50c83a81HAjhgX" class=""></path><path d="M469.333073 853.332859h113.777714v166.143908a499.000612 499.000612 0 0 1-113.777714 0V853.332859z" fill="#FFFFFF" p-id="667"></path><path d="M469.333073 682.666287h113.777714v170.666572c-18.972434 18.119101-37.916423 27.192874-56.888857 27.192874s-37.916423-9.073773-56.888857-27.192874v-170.666572z" fill="#FFE5DA" p-id="668"></path><path d="M469.333073 767.999573h113.777714v47.985751a218.396323 218.396323 0 0 1-56.888857 7.651552c-18.972434 0-37.916423-2.559999-56.888857-7.651552V767.999573z" fill="#EBBBA5" p-id="669"></path><path d="M526.961485 790.186228c162.076354 0 235.548314-141.852366 235.548314-290.303839C762.509799 351.430916 652.628971 170.666572 526.961485 170.666572 401.293999 170.666572 284.444286 351.430916 284.444286 499.882389c0 148.451473 80.440844 290.303839 242.517199 290.303839z" fill="#FFE5DA" p-id="670"></path><path d="M527.644151 113.863048L529.066373 113.777715v0.170666c165.546575 10.325328 256.170524 107.434607 271.871849 291.356283l26.766207 10.951105-36.380424 42.865754-9.898661 24.831986h-18.773323v-15.160881c-90.595505 18.716434-145.151919-2.446221-163.669243-63.487964-11.662216-25.173319-35.441758-52.138638-71.338627-80.895955-35.925313 28.757317-59.7333 55.722636-71.367071 80.895955-18.488879 61.041744-73.073737 82.204399-163.669243 63.487964v15.160881h-18.773322l-9.898662-24.831986L227.555429 416.255769l26.766207-10.951105c15.729769-183.921676 106.353719-281.030955 271.900294-291.356283V113.777715c0.483555 0 0.938666 0.056889 1.422221 0.085333z" fill="#515151" p-id="671" data-spm-anchor-id="a313x.manage_type_mylikes.0.i0.50c83a81HAjhgX" class="selected"></path><path d="M625.77743 554.666359c15.701325 0 28.444429-15.92888 28.444429-35.555536S641.478755 483.555287 625.77743 483.555287s-28.444429 15.92888-28.444429 35.555536 12.743104 35.555536 28.444429 35.555536z" fill="#2F3242" p-id="672"></path><path d="M625.77743 597.333001c0 15.701325 19.114656 28.444429 42.666643 28.444429s42.666643-12.743104 42.666643-28.444429-19.114656-28.444429-42.666643-28.444428-42.666643 12.743104-42.666643 28.444428zM341.333144 597.333001c0 15.701325 19.114656 28.444429 42.666643 28.444429s42.666643-12.743104 42.666643-28.444429-19.114656-28.444429-42.666643-28.444428-42.666643 12.743104-42.666643 28.444428z" fill="#FFA6A6" p-id="673"></path><path d="M426.66643 554.666359c15.701325 0 28.444429-15.92888 28.444428-35.555536S442.367754 483.555287 426.66643 483.555287s-28.444429 15.92888-28.444429 35.555536 12.743104 35.555536 28.444429 35.555536z" fill="#2F3242" p-id="674"></path><path d="M526.22193 699.732945c15.41688 0 30.805316-9.898661 46.222196-29.667539a14.222214 14.222214 0 0 0-11.207104-22.954654h-70.030184a14.222214 14.222214 0 0 0-11.207105 22.954654c15.41688 19.768878 30.805316 29.667539 46.222197 29.667539z" fill="#F57272" p-id="675"></path></svg>