<?xml version="1.0" standalone="no"?><!DOCTYPE svg PUBLIC "-//W3C//DTD SVG 1.1//EN" "http://www.w3.org/Graphics/SVG/1.1/DTD/svg11.dtd"><svg t="1728716767697" class="icon" viewBox="0 0 1024 1024" version="1.1" xmlns="http://www.w3.org/2000/svg" p-id="7412" xmlns:xlink="http://www.w3.org/1999/xlink" width="200" height="200"><path d="M512 961.2c-22.8 0-45.7-7-65.2-20.9C125.4 711.2 12.7 579.3 0.1 417.7l-0.1-3.1 0.1-57.1c15-185.7 139.1-281.7 248.1-292.3 16.1-1.6 31.8-2.4 46.7-2.4 105.7 0 166.5 42.4 217.1 96.1 50.6-53.7 111.4-96.1 217.1-96.1 14.8 0 30.5 0.8 46.7 2.4 108.9 10.6 233.1 106.7 248.1 292.3l0.1 3.2-0.1 57c-12.6 161.5-125.3 293.4-446.8 522.7-19.5 13.9-42.3 20.8-65.1 20.8zM78.8 413c11.1 133.6 115.9 250.8 413.8 463.2 11.7 8.4 27.2 8.3 38.7 0.1 298-212.5 402.8-329.7 413.9-463.2v-50.8c-11.9-139.5-100-211.2-177.1-218.7-13.6-1.3-26.7-2-39-2-86.5 0-127.6 31.5-186.9 102.2l-30.2 36-30.2-36c-59.3-70.7-100.4-102.2-186.9-102.2-12.3 0-25.4 0.7-39 2-77.2 7.6-165.3 79.2-177.2 218.7V413z" fill="#515151" p-id="7413"></path></svg>