<?xml version="1.0" standalone="no"?><!DOCTYPE svg PUBLIC "-//W3C//DTD SVG 1.1//EN" "http://www.w3.org/Graphics/SVG/1.1/DTD/svg11.dtd"><svg t="1727680238913" class="icon" viewBox="0 0 1024 1024" version="1.1" xmlns="http://www.w3.org/2000/svg" p-id="8972" xmlns:xlink="http://www.w3.org/1999/xlink" width="200" height="200"><path d="M512 512m-512 0a512 512 0 1 0 1024 0 512 512 0 1 0-1024 0Z" fill="#9FD9F6" p-id="8973"></path><path d="M394.4 278.5c1-0.5 1.9-1.1 2.9-1.6-1 0.5-1.9 1.1-2.9 1.6z m126.8-30.2c-3.1-0.1-6.2-0.2-9.2-0.2-3.2 0-6.4 0.1-9.7 0.2 3.1 0 6.2 0.1 9.3 0.3 3.2-0.1 6.4-0.3 9.6-0.3z m-139.9 38.1c2.2-1.4 4.3-2.8 6.5-4.1-2.1 1.3-4.3 2.7-6.5 4.1z m-6.8 4.6c1.1-0.8 2.2-1.6 3.4-2.4-1.2 0.8-2.3 1.6-3.4 2.4z m230.6-24.4c24.8 10.7 47.8 25.2 68.1 43-20-18-43.1-32.5-68.1-43zM472.2 390.7c-46.3 80.8-124.8 152.4-201.1 105.1 4.3 128.6 110.4 231.7 240.9 231.7s236.7-103.1 240.9-231.8c-63.8 39.5-231-17.8-280.7-105z" fill="#FBE9EA" p-id="8974"></path><path d="M597.1 737l0.3 0.1-0.3-0.1m28.3 8.7c0.1 0 0.2-0.1 0.3-0.1 0.5 0.2 1.1 0.4 1.6 0.6-1.5-0.5-2.9-1-4.4-1.5 0.8 0.3 1.7 0.6 2.5 0.9 0.1 0 0 0.1 0 0.1m-59.5-15z m14.2 2.5c1.4 0.3 2.8 0.5 4.2 0.8-1.4-0.2-2.8-0.5-4.2-0.8m50.3 14.2c17.3 17.9-1 85.3-28.4 66.1l-45 9.4-45.1 4.3-45-4.3-45.1-9.4c-27.3 19.1-45.8-46.3-29.1-65.7-85.1 32-147.6 98.1-172.8 185.2 82.9 57.3 183.5 91 292.1 91 108.6 0 209.4-33.7 292.2-91-25.3-87.4-88.1-153.7-173.8-185.6m-229.3-2.7l-4.2 1.5 1.3-0.4c0.2 0 0.4 0.1 0.5 0.1l-0.1-0.3c0.8-0.3 1.6-0.6 2.5-0.9" fill="#CFDF7C" p-id="8975"></path><path d="M512 825.2c-1 0-2.1-0.1-3.1-0.1l3 2.1 3-2.1c-1 0.1-1.9 0.1-2.9 0.1m98.2-84.6c1.3 0.4 2.7 0.8 4 1.2-1.3-0.3-2.6-0.8-4-1.2m-156.7-9.1z m-13.6 2.5c1.3-0.3 2.7-0.5 4-0.8-1.4 0.3-2.7 0.6-4 0.8m112.1-5.1c1.5 0.2 2.9 0.4 4.3 0.6-1.4-0.3-2.8-0.5-4.3-0.6m-142 12.9c1.3-0.4 2.5-0.8 3.7-1.2-1.2 0.4-2.4 0.8-3.7 1.2m57.9-12.4c1.4-0.2 2.8-0.4 4.2-0.5-1.4 0.1-2.8 0.3-4.2 0.5" fill="#D4E16F" p-id="8976"></path><path d="M514.8 825.1l42.1-29.4 64.8-48.3c1.3-0.9 2.5-1.5 3.6-1.7l0.1-0.1c-0.8-0.3-1.7-0.6-2.5-0.9-2.9-1-5.8-1.9-8.7-2.8-1.3-0.4-2.7-0.8-4-1.2-4.2-1.3-8.5-2.4-12.8-3.5l-0.3-0.1c-4.3-1.1-8.5-2-12.8-2.9-1.4-0.3-2.8-0.6-4.2-0.8-4.7-0.9-9.4-1.8-14.1-2.5-3.2-0.5-6.4-0.9-9.6-1.3-1.5-0.2-2.9-0.4-4.3-0.6-4.7-0.5-9.3-1-14-1.3h-51.8c-4.7 0.4-9.4 0.8-14.1 1.3-1.4 0.2-2.8 0.4-4.2 0.5-3.3 0.4-6.5 0.9-9.8 1.4-4.8 0.7-9.5 1.6-14.2 2.5-1.3 0.3-2.7 0.5-4 0.8-8.8 1.8-17.5 4-26.1 6.6-1.3 0.4-2.5 0.8-3.7 1.2-3 0.9-6 1.9-8.9 2.9-0.9 0.3-1.7 0.6-2.5 0.9l0.1 0.3c0.9 0.3 1.9 0.8 2.9 1.6l65.3 48.3 42 29.4c1 0 2.1 0.1 3.1 0.1 0.8-0.3 1.7-0.3 2.6-0.4z" fill="#FDFDFD" p-id="8977"></path><path d="M472.2 390.7c49.6 87.2 216.9 144.5 280.6 105l0.2-0.1c4.3-79.3-30.8-143-79.8-185.8-20.3-17.8-43.3-32.3-68.1-43-28.3-12.2-57.3-18.5-83.9-18.3-3.2 0-6.4 0.1-9.6 0.4 8.3 29.1-8.3 87.5-39.4 141.8z" fill="#F7B86F" p-id="8978"></path><path d="M472.2 390.7c31.1-54.2 47.7-112.6 39.4-142-3.1-0.2-6.2-0.3-9.3-0.3-33.2-0.3-70.4 9.7-105 28.6-1 0.5-1.9 1.1-2.9 1.6-2.2 1.2-4.4 2.4-6.5 3.7-2.2 1.3-4.4 2.7-6.5 4.1-1.2 0.7-2.3 1.5-3.5 2.2-1.1 0.8-2.3 1.6-3.4 2.4-60.9 41.8-108.7 112.6-103.8 204.5 0.1 0.1 0.3 0.2 0.4 0.3 76.4 47.3 154.8-24.3 201.1-105.1z" fill="#FACE77" p-id="8979"></path></svg>