<?xml version="1.0" standalone="no"?><!DOCTYPE svg PUBLIC "-//W3C//DTD SVG 1.1//EN" "http://www.w3.org/Graphics/SVG/1.1/DTD/svg11.dtd"><svg t="1728716423808" class="icon" viewBox="0 0 1129 1024" version="1.1" xmlns="http://www.w3.org/2000/svg" p-id="1649" xmlns:xlink="http://www.w3.org/1999/xlink" width="220.5078125" height="200"><path d="M669.489367 1016.496894c-85.292857 2.785872-189.356466-2.386815-292.381021-29.349537C148.937907 927.424287-6.152335 732.202431 0.187406 497.45884 6.73797 255.283749 172.038056 65.520695 404.560478 15.774058 576.109953-20.939216 737.517347 5.669626 884.799618 103.822669c122.465423 81.618517 190.493403 199.45337 219.790235 340.855193 24.922259 120.206608 25.04273 240.84992-6.166565 360.265943-36.434687 139.368889-127.359522 201.350774-265.990532 211.026032-47.427587 3.312929-95.284349 0.527057-162.93586 0.527057" fill="#ADDEEE" p-id="1650" data-spm-anchor-id="a313x.search_index.0.i0.67763a81W3Xuj7" class="selected"></path><path d="M389.795357 745.070147c-21.594272-42.932545-21.669566-91.391657-33.761756-136.816428-5.391039-20.231454-13.831478-27.903895-30.65212-35.674219-29.417301-13.605596-58.277429-28.890245-85.73709-46.079827-29.010715-18.145814-27.949072-26.74437 3.056929-42.480782 107.090422-54.339561 218.374711-99.222216 329.576176-144.112401 69.435975-28.024365 139.820652-53.729681 210.145095-79.434996 13.138774-4.796217 30.441298-15.322295 41.426668-3.91528 10.089374 10.488431 4.39716 28.536364 0.639997 43.128309-20.63804 80.135229-54.866618 155.316123-86.723439 231.174663-25.148141 59.873658-54.550384 117.98544-83.064159 176.405926-20.841334 42.691605-25.012612 44.235128-68.299038 22.414975-31.096354-15.676177-60.747066-34.168342-91.037776-51.410631-6.159036 2.763284-12.129837 1.355289-18.017815-0.873408-41.637491-15.774058-41.276081-15.623471-59.331542 26.87237-6.490329 15.314766-7.604677 35.011633-28.22013 40.801729" fill="#FDFEFE" p-id="1651"></path><path d="M389.795357 745.070147c11.858779-26.99284 25.931197-53.277918 34.921281-81.204401 7.785383-24.18438 16.173116-22.324622 32.654936-8.606086 11.24137 9.366553 25.223435 15.457824 37.99327 23.009796-11.72325 28.58154-75.256188 68.788448-105.569487 66.800691" fill="#0294C9" p-id="1652"></path></svg>