<?xml version="1.0" standalone="no"?><!DOCTYPE svg PUBLIC "-//W3C//DTD SVG 1.1//EN" "http://www.w3.org/Graphics/SVG/1.1/DTD/svg11.dtd"><svg t="1728716978708" class="icon" viewBox="0 0 1024 1024" version="1.1" xmlns="http://www.w3.org/2000/svg" p-id="20384" xmlns:xlink="http://www.w3.org/1999/xlink" width="200" height="200"><path d="M891.1 501.6l-332-286.1c-9.2-7.9-23.3-1.4-23.3 10.7V394c0 7.5-5.9 13.8-13.4 14.1-192.2 6.9-353.8 146.4-387.8 337.7l-6.3 35.5c-2.5 13.8 14.5 22.4 24.2 12.2l24.8-26.2c89.7-94.9 214.3-148.2 344.4-147.7 7.8 0 14.2 6.3 14.2 14.1v164.2c0 12.1 14.2 18.6 23.3 10.7l332-285.6c6.4-5.7 6.4-15.8-0.1-21.4z m-683 171.6c56-128.9 183.6-215.7 329.4-215.7h34c7.8 0 14.1-6.3 14.1-14.1V304.1l241.5 208.2L585.6 720V584.2c0-7.8-6.3-14.1-14.1-14.1h-30.9c-120.3-4.8-237.5 32.2-332.5 103.1z" fill="#515151" p-id="20385"></path></svg>