<?xml version="1.0" standalone="no"?><!DOCTYPE svg PUBLIC "-//W3C//DTD SVG 1.1//EN" "http://www.w3.org/Graphics/SVG/1.1/DTD/svg11.dtd"><svg t="1728381026106" class="icon" viewBox="0 0 1024 1024" version="1.1" xmlns="http://www.w3.org/2000/svg" p-id="2680" xmlns:xlink="http://www.w3.org/1999/xlink" width="200" height="200"><path d="M700.8 464H192c-54.4 0-96 44.8-96 96v224c0 54.4 44.8 96 96 96h505.6c54.4 0 96-44.8 96-96v-224c3.2-54.4-41.6-96-92.8-96z m32 320c0 19.2-16 32-32 32H192c-19.2 0-32-16-32-32v-224c0-19.2 16-32 32-32h505.6c19.2 0 32 16 32 32v224zM784 243.2h-118.4V198.4c0-19.2-19.2-28.8-35.2-16l-99.2 80c-9.6 9.6-9.6 25.6 0 32l99.2 80c12.8 9.6 35.2 0 35.2-16V307.2h118.4c44.8 0 80 35.2 80 80v35.2c0 19.2 12.8 32 32 32s32-12.8 32-32v-35.2c0-76.8-64-144-144-144z" p-id="2681" fill="#ffffff"></path></svg>