<?xml version="1.0" standalone="no"?><!DOCTYPE svg PUBLIC "-//W3C//DTD SVG 1.1//EN" "http://www.w3.org/Graphics/SVG/1.1/DTD/svg11.dtd"><svg t="1728714333558" class="icon" viewBox="0 0 1024 1024" version="1.1" xmlns="http://www.w3.org/2000/svg" p-id="35837" xmlns:xlink="http://www.w3.org/1999/xlink" width="200" height="200"><path d="M139.036029 479.614241c7.707027 6.521331 19.563993 7.707027 29.049565 2.964241 7.114179-3.55709 12.449813-10.671269 18.378296-16.006903 5.928483-5.335634 10.07842-12.449813 10.07842-20.15684 0.592848-7.707027-2.371393-15.414055-7.707027-20.749689L174.606925 411.436691c-6.521331-5.928483-16.599751-8.299876-24.899627-5.928482-5.335634 1.185697-10.07842 4.742786-13.63551 8.892724-4.149938 4.149938-8.299876 8.299876-12.449814 13.042661-6.521331 7.114179-8.892724 18.378296-5.335634 27.27102 1.778545 4.742786 4.742786 8.892724 8.299876 12.449814 3.55709 3.55709 7.707027 8.299876 12.449813 12.449813zM985.623342 133.983706c-11.264117-11.856965-26.678172-18.378296-42.092226-23.121082l-302.352612-88.927238c-16.006903-4.742786-32.013806-9.485572-48.020709-13.63551C569.443865 2.964241 544.544238 1.185697 520.237459 0h-16.006903c-30.235261 0.592848-61.063371 3.55709-90.705783 12.449813-109.08408 32.013806-218.168159 64.027612-326.659391 96.041418-14.228358 4.149938-28.456716 8.892724-40.313681 17.785448-7.707027 5.335634-14.228358 13.042662-17.785448 21.935386-3.55709 9.485572-2.964241 20.156841 0.592848 29.049564 3.55709 8.299876 10.07842 15.414055 17.1926 20.749689 10.07842 7.114179 21.935386 11.856965 33.792351 15.414055 16.006903 4.742786 32.606654 9.485572 48.613557 14.228358V343.85199c0 11.856965 9.485572 23.121082 21.342537 25.492475 8.892724 1.778545 18.378296-1.185697 24.899627-7.114179 5.335634-5.335634 8.299876-12.449813 7.707027-19.563993V243.067786l59.284826 17.192599v100.784204c0 43.870771 11.264117 87.148694 32.013806 125.683831 30.235261 56.320585 80.627363 100.784204 139.912189 123.312438 42.092226 16.599751 87.741542 21.935386 132.79801 16.006903 36.756592-4.742786 71.734639-17.192599 103.748445-36.163744 55.134888-32.606654 97.227114-85.962997 117.383955-146.43352 10.07842-30.828109 14.228358-63.434764 13.63551-96.041418V260.853234c54.54204-16.006903 109.08408-32.013806 163.033271-48.020709 14.821206-4.742786 29.642413-11.264117 40.90653-22.528234 6.521331-6.521331 10.671269-15.414055 11.856965-24.899627v-6.521331c-1.185697-9.485572-5.335634-18.378296-11.856965-24.899627z" p-id="35838" data-spm-anchor-id="a313x.search_index.0.i26.191e3a81Tctgs5" class="selected" fill="#616B3E"></path><path d="M926.338516 804.495087c-33.199502-74.106032-84.184453-140.505037-148.804913-189.711443-4.742786-3.55709-9.485572-8.299876-15.414054-10.07842-7.707027-2.371393-17.192599-1.185697-23.713931 3.557089-7.707027 5.928483-16.006903 11.264117-24.306778 16.599751-59.284826 37.942289-129.833769 59.877674-200.382712 59.877674-45.056468 0.592848-89.520087-7.707027-131.612313-23.71393-34.385199-13.042662-66.991853-30.828109-96.041418-52.763495-6.521331-4.742786-15.414055-6.521331-23.121082-4.149938-6.521331 1.185697-11.264117 5.928483-16.599751 10.078421-64.027612 49.799254-115.012562 116.198259-148.804913 190.304291-27.27102 59.877674-43.277923 125.090983-48.020709 190.897139-1.185697 10.07842 4.742786 20.749689 14.228358 25.492475 4.742786 2.371393 10.07842 3.55709 14.821207 2.964241h870.301243c10.671269-0.592848 20.749689-8.299876 24.306779-18.378296 1.778545-4.742786 1.185697-9.485572 1.185696-13.63551-5.335634-65.213308-21.342537-128.648072-48.020709-187.340049z m-337.923507 66.399005c-4.742786 7.707027-13.63551 13.042662-22.528234 13.042661H469.252509c-7.114179 0-14.821206 0.592848-21.935386-2.371393-10.671269-4.742786-17.785448-16.006903-16.006903-27.27102 1.185697-11.264117 9.485572-20.749689 20.156841-23.121082 4.149938-1.185697 7.707027-0.592848 11.856965-0.592848H565.886775c8.892724 0 17.192599 4.742786 21.935386 11.856965 5.928483 7.707027 6.521331 19.563993 0.592848 28.456717z" p-id="35839" data-spm-anchor-id="a313x.search_index.0.i27.191e3a81Tctgs5" class="selected" fill="#616B3E"></path></svg>