<?xml version="1.0" standalone="no"?><!DOCTYPE svg PUBLIC "-//W3C//DTD SVG 1.1//EN" "http://www.w3.org/Graphics/SVG/1.1/DTD/svg11.dtd"><svg t="1728888343063" class="icon" viewBox="0 0 1024 1024" version="1.1" xmlns="http://www.w3.org/2000/svg" p-id="2148" xmlns:xlink="http://www.w3.org/1999/xlink" width="32" height="32"><path d="M512 981.333333C251.733333 981.333333 42.666667 772.266667 42.666667 512S251.733333 42.666667 512 42.666667s469.333333 209.066667 469.333333 469.333333-209.066667 469.333333-469.333333 469.333333z m0-853.333333C300.8 128 128 300.8 128 512s172.8 384 384 384 384-172.8 384-384S723.2 128 512 128z" p-id="2149" fill="#c5de77"></path><path d="M512 277.333333c-130.133333 0-234.666667 104.533333-234.666667 234.666667s104.533333 234.666667 234.666667 234.666667 234.666667-104.533333 234.666667-234.666667-104.533333-234.666667-234.666667-234.666667z" p-id="2150" fill="#c5de77"></path></svg>