<?xml version="1.0" standalone="no"?><!DOCTYPE svg PUBLIC "-//W3C//DTD SVG 1.1//EN" "http://www.w3.org/Graphics/SVG/1.1/DTD/svg11.dtd"><svg t="1727256025069" class="icon" viewBox="0 0 1024 1024" version="1.1" xmlns="http://www.w3.org/2000/svg" p-id="16117" xmlns:xlink="http://www.w3.org/1999/xlink" width="200" height="200"><path d="M74.326292 695.342022v308.396585h78.502832c2.991461-54.92782 48.760809-98.48809 104.73564-98.48809 55.974831 0 101.74418 43.56027 104.73564 98.48809h298.72036c2.991461-54.92782 48.760809-98.48809 104.73564-98.48809 55.986337 0 101.74418 43.56027 104.735641 98.48809h78.514337V695.342022H74.314787z" fill="#CEE8FA" p-id="16118"></path><path d="M949.351551 675.046112H709.781573l-44.354157-149.573033h283.75155c11.275506 0 20.422472-9.089438 20.422472-20.284405a20.364944 20.364944 0 0 0-20.422472-20.29591H653.450067l-31.329797-105.65609a203.994607 203.994607 0 0 0 96.463101-173.700314C718.583371 92.183011 625.640989 0 511.746876 0 397.86427 0 304.921888 92.183011 304.737798 205.191191a204.569888 204.569888 0 0 0 110.902651 182.272 20.491506 20.491506 0 0 0 27.636495-8.571685 20.249888 20.249888 0 0 0-8.629214-27.46391c-54.916315-28.683506-89.064989-84.658337-89.064988-146.236405 0-90.963416 74.46436-164.956045 165.99155-164.956045 91.527191 0 165.991551 73.992629 165.991551 164.956045 0 61.578067-34.148674 117.552899-89.064989 146.236405a20.364944 20.364944 0 0 0-10.205483 23.793617l32.560899 109.683057H74.314787c-11.264 0-20.410966 9.089438-20.410967 20.284404v192.419955c0 0.885933 0 1.76036 0.172584 2.450697V1003.404944a20.364944 20.364944 0 0 0 20.422472 20.284404h78.502832c10.746247 0 19.893213-8.399101 20.422472-19.237393 2.462202-44.434697 39.429753-79.250697 84.313168-79.250697 44.894921 0 81.862472 34.63191 84.324674 79.250697a20.410966 20.410966 0 0 0 20.422472 19.237393h298.892944c10.734742 0 19.893213-8.399101 20.422472-19.237393 2.462202-44.434697 39.429753-79.250697 84.313169-79.250697 44.883416 0 81.850966 34.63191 84.313168 79.250697a20.410966 20.410966 0 0 0 20.422472 19.237393h78.514337c11.264 0 20.410966-8.916854 20.410966-20.11182v-308.235506a20.364944 20.364944 0 0 0-20.422471-20.284404z m-326.529439-149.561528l44.365663 149.573034h-308.580674l20.940225-67.883146c3.520719-10.665708-2.807371-22.205843-13.553618-25.358382-10.734742-3.152539-22.171326 2.623281-25.519461 13.461573l-24.460944 79.779955H94.737258v-149.573034h528.084854zM134.868854 983.270112H94.737258V715.626427H303.518202l-51.924854 169.32818c-57.205933 2.623281-104.908225 43.56027-116.712988 98.315505z m508.019056 0H379.915506c-9.50364-44.952449-43.652315-80.815461-87.30463-93.414112l53.501124-174.229573h333.053124l51.579685 174.056989c-43.836404 12.426067-78.157663 48.277573-87.845393 93.586696z m285.868584-0.172584h-40.131595c-11.620674-54.398562-59.668135-95.162966-116.528899-98.142921l-50.164494-169.32818h206.824988v267.471101z" fill="#2D527C" p-id="16119"></path></svg>