<?xml version="1.0" standalone="no"?><!DOCTYPE svg PUBLIC "-//W3C//DTD SVG 1.1//EN" "http://www.w3.org/Graphics/SVG/1.1/DTD/svg11.dtd"><svg t="1728702138761" class="icon" viewBox="0 0 1083 1024" version="1.1" xmlns="http://www.w3.org/2000/svg" p-id="15893" xmlns:xlink="http://www.w3.org/1999/xlink" width="211.5234375" height="200"><path d="M769.632154 221.207103c-33.344709-37.712806-63.164136-77.521955-89.261483-119.068076-2.374431-3.777698-5.450495-6.263363-8.808925-7.054841l-61.649634-14.571731c-8.496612-2.040727-17.373988 7.640961-19.581567 21.643685-1.873875 12.924604-41.507616 49.892994-87.781207 42.132241-47.274702-7.931882-69.222143-60.46028-64.858325-75.412776 3.858985-15.110792 0.295199-28.968055-8.20569-31.004504L366.646334 23.021283c-3.456829-0.817146-7.4955 0.517669-11.504224 3.82048a5382.513641 5382.513641 0 0 0-132.176645 112.650696c-5.814147 5.12107-10.875321 13.621959-13.604847 23.012726-73.487562 252.934631-102.220313 519.799256-83.819544 788.554869 1.202189 17.9815 13.035839 30.03334 26.118738 26.905937l172.345168-40.733252c13.095734-3.127403 21.65652-18.627516 19.397602-34.632463a2085.391936 2085.391936 0 0 1-9.955496-83.374606c111.752262-20.40727 223.504525-40.810261 335.252509-61.22181a1723.173595 1723.173595 0 0 0 18.571899 68.101241c3.824759 13.091456 17.71197 21.11746 30.799147 17.985778l169.666982-40.100071c13.095734-3.127403 19.602958-14.618793 14.734305-25.759365-72.965615-168.109697-115.52996-350.222118-125.288657-537.921938-0.36793-7.084788-3.174464-14.143906-7.551117-19.102402z" fill="#EDA195" p-id="15894"></path></svg>