<?xml version="1.0" standalone="no"?><!DOCTYPE svg PUBLIC "-//W3C//DTD SVG 1.1//EN" "http://www.w3.org/Graphics/SVG/1.1/DTD/svg11.dtd"><svg t="1728714485217" class="icon" viewBox="0 0 1024 1024" version="1.1" xmlns="http://www.w3.org/2000/svg" p-id="45754" xmlns:xlink="http://www.w3.org/1999/xlink" width="200" height="200"><path d="M360.0384 755.9168v29.7984c-97.28-0.4096-149.7088-28.9792-150.2208-38.912V728.064c38.2976 18.6368 95.3344 27.648 150.2208 27.8528z m2.9696-271.1552c-97.3824 0-149.7088-28.5696-150.1184-38.4 0.6144-9.8304 53.1456-38.4 150.1184-38.4 97.1776 0 149.7088 28.4672 150.2208 38.4-0.4096 9.9328-52.736 38.4-150.2208 38.4z m114.7904 108.6464c12.8-3.4816 25.1904-8.0896 37.1712-13.7216v8.6016c-12.3904 1.1264-24.8832 2.8672-37.1712 5.12z m88.1664 117.5552c-104.3456 0-159.5392-29.9008-159.6416-40.2432 0.2048-10.3424 55.3984-40.2432 159.6416-40.2432s159.5392 29.9008 159.6416 40.2432c-0.2048 10.3424-55.5008 40.2432-159.6416 40.2432z m160.1536 38.0928c-3.4816 10.1376-57.6512 36.7616-159.6416 36.7616s-156.2624-26.7264-159.5392-36.1472v-23.1424c40.0384 19.8656 100.9664 29.2864 159.5392 29.2864s119.5008-9.5232 159.6416-29.2864v22.528z m-366.08-67.3792v29.7984c-96.8704-0.4096-149.504-28.8768-150.2208-38.8096v-18.944c38.4 18.7392 95.4368 27.7504 150.2208 27.9552z m4.7104-72.8064c28.16 0 56.832-2.3552 83.456-7.2704-30.72 8.3968-56.1152 20.5824-70.9632 36.7616l-12.4928-0.2048c-97.1776 0-149.7088-28.4672-150.1184-38.4v-18.6368c38.1952 18.8416 95.232 27.7504 150.1184 27.7504z m0-79.1552c54.8864 0 112.0256-8.9088 150.2208-27.648v22.1184c-0.4096 9.9328-52.8384 38.5024-150.2208 38.5024S215.04 534.1184 214.6304 524.1856v-22.1184c38.1952 18.6368 95.232 27.648 150.1184 27.648z m361.3696 291.0208c-3.3792 10.1376-57.5488 36.864-159.6416 36.864s-156.2624-26.7264-159.5392-36.2496V802.816c40.0384 18.944 100.9664 27.9552 159.5392 27.9552S686.08 821.76 726.1184 802.816v17.92zM564.224 586.752l-7.0656 0.1024V447.3856c0-57.2416-101.0688-83.2512-194.7648-83.2512-93.7984 0-194.7648 26.0096-194.7648 83.2512v300.6464c0 57.0368 100.2496 83.0464 193.7408 83.2512 10.6496 49.5616 110.1824 72.2944 202.9568 72.2944 98.304 0 203.9808-25.3952 203.9808-81.2032V675.6352c0-0.4096-0.3072-0.9216-0.3072-1.4336 0-0.8192 0.3072-1.6384 0.3072-2.4576 0-58.2656-105.7792-84.992-204.0832-84.992z" p-id="45755" fill="#616B3E"></path><path d="M792.2688 174.1824a216.28928 216.28928 0 0 0-115.2-33.28c-54.0672 0-105.7792 20.8896-144.4864 57.7536-38.7072-36.7616-90.3168-57.6512-143.1552-57.6512-42.0864 0-81.92 11.5712-116.6336 33.4848-34.7136 21.8112-62.8736 53.0432-81.3056 90.3168s-26.4192 78.9504-23.1424 120.5248c32.5632-17.7152 18.7392-24.2688 52.6336-30.0032 1.1264-20.3776 17.8176-55.6032 27.2384-74.6496 9.4208-18.944 49.8688-75.776 105.2672-75.776l32.768-6.144c45.568 0 86.3232 21.7088 114.688 61.0304 6.9632 9.6256 18.0224 15.36 29.696 15.36s22.8352-5.7344 29.696-15.36c28.4672-39.424 69.3248-61.1328 114.7904-61.1328 55.5008 0 114.2784 31.4368 139.3664 81.92 25.088 50.4832 22.528 139.6736-10.0352 185.5488C767.7952 512 752.8448 547.84 679.936 584.4992c30.0032 7.2704 55.808 17.92 73.0112 32.256 43.2128-45.056 66.6624-72.6016 100.0448-114.2784 0.8192-1.024 1.6384-2.1504 2.2528-3.072a229.0688 229.0688 0 0 0 41.3696-114.8928c3.1744-41.472-4.8128-83.1488-23.3472-120.2176a218.66496 218.66496 0 0 0-80.9984-90.112z" p-id="45756" fill="#616B3E"></path></svg>