<svg width="109" height="113" viewBox="0 0 109 113" fill="none" xmlns="http://www.w3.org/2000/svg">
<path d="M77.24 111.01C79.8 111.1 82.3601 111.05 84.9201 111C92.0601 110.87 99.21 110.74 106.35 110.61C107.46 110.59 108.9 110.35 108.98 109.5C109.05 108.74 107.92 108.26 106.97 108.03C103.55 107.22 99.95 107.06 96.4 106.92C91.17 106.72 85.94 106.55 80.71 106.42C77.44 106.34 74.0901 106.28 71.0501 107.12C69.3901 107.58 66.94 109.53 69.58 110.48C70.31 110.74 71.79 110.62 72.58 110.69C74.12 110.84 75.68 110.96 77.24 111.01Z" fill="url(#paint0_linear)"/>
<path d="M77.24 111.01C79.8 111.1 82.3601 111.05 84.9201 111C92.0601 110.87 99.21 110.74 106.35 110.61C107.46 110.59 108.9 110.35 108.98 109.5C109.05 108.74 107.92 108.26 106.97 108.03C103.55 107.22 99.95 107.06 96.4 106.92C91.17 106.72 85.94 106.55 80.71 106.42C77.44 106.34 74.0901 106.28 71.0501 107.12C69.3901 107.58 66.94 109.53 69.58 110.48C70.31 110.74 71.79 110.62 72.58 110.69C74.12 110.84 75.68 110.96 77.24 111.01Z" fill="url(#paint1_linear)"/>
<path d="M90.35 105.96C90.36 106.01 90.3701 106.06 90.4101 106.1C90.4601 106.16 90.5501 106.16 90.6301 106.16C91.1901 106.15 91.7601 106.11 92.3101 106.01C92.5501 105.97 92.8401 105.87 92.8901 105.63C92.9101 105.52 92.87 105.4 92.83 105.3C92.59 104.67 92.35 104.04 92.11 103.41C92.1 103.39 92.09 103.36 92.07 103.35C92.04 103.33 92 103.32 91.97 103.32C91.57 103.31 91.1701 103.35 90.7701 103.43C90.5201 103.48 90.0501 103.51 89.9301 103.78C89.8101 104.04 90.01 104.48 90.07 104.74C90.17 105.14 90.26 105.55 90.35 105.96Z" fill="#F9E9DE"/>
<path d="M76.71 105.96C77.25 105.99 77.79 106.02 78.32 106.06C78.37 106.06 78.43 106.06 78.47 106.03C78.52 105.99 78.5201 105.93 78.5301 105.87C78.5601 105.17 78.54 104.47 78.48 103.77C78.48 103.72 78.47 103.66 78.44 103.62C78.4 103.57 78.33 103.55 78.26 103.53C77.95 103.46 77.64 103.39 77.32 103.39C77.07 103.39 76.7801 103.43 76.5601 103.56C76.3301 103.7 76.3701 103.79 76.4101 104.03C76.5201 104.67 76.59 105.31 76.71 105.96Z" fill="#F9E9DE"/>
<path d="M89.32 103.78C90.4299 104.02 91.61 103.88 92.63 103.39C91.48 99.52 91.14 98.38 90 94.51C89.64 93.29 89.27 92.05 89.12 90.79C88.94 89.23 89.09 87.65 89.24 86.09C89.82 80.03 91.3 59.95 91.88 53.9C91.93 53.39 91.9799 52.87 91.82 52.38C91.37 50.99 87.34 50.75 85.88 50.63C85.56 50.6 83.17 50.59 82.91 50.77C82.61 50.98 80.2399 50.55 80.1899 50.91C79.4899 55.66 82.13 65.65 82.17 70.74C82.18 72.43 82.86 83.25 82.99 84.94C83.22 87.91 84.14 91.05 85.38 93.77C87.28 97.95 87.53 98.9 89.32 103.78Z" fill="#97A8B2"/>
<path d="M81.1 51.48C80.74 51.19 77.15 50.92 76.69 50.91L70.97 51C70.84 60.24 72.68 85.61 74.45 94.68C75.21 98.59 76.08 99.91 76.09 103.89C76.93 103.89 77.76 103.89 78.6 103.89C78.88 91.43 82.0001 65.51 82.2901 53.05C82.3001 52.43 81.59 51.88 81.1 51.48Z" fill="#97A8B2"/>
<path d="M77.98 22.47C77.17 19.78 74.11 19.4 73.58 22.87C73.1 26.01 70.79 32.61 69.47 35.69C68.84 37.17 67.6101 38.31 65.8901 38.95C62.4701 40.22 59.1501 41.72 55.6701 42.84C55.6801 42.86 55.6801 42.87 55.6801 42.89C55.1001 43.12 54.47 43.24 53.84 43.24C53.02 43.24 52.14 43.05 51.44 43.44C51.48 43.53 51.52 43.62 51.57 43.72C51.74 43.75 51.9 43.78 52.07 43.8C51.67 43.89 51.2801 44.04 50.9201 44.24C50.5701 44.44 50.23 44.78 50.34 45.14C50.46 45.5 50.94 45.6 51.34 45.61C53.02 45.66 54.65 45.15 56.24 44.59C60.65 43.71 63.68 42.19 68.12 41.32C68.98 41.15 69.8801 40.97 70.6301 40.52C71.3601 40.08 71.87 39.44 72.32 38.8C75.31 34.54 79.29 26.78 77.98 22.47Z" fill="#F9E9DE"/>
<path d="M84.71 16.9C85.33 16.25 85.81 15.33 86.07 14.19C86.55 12.08 86.8001 9.86001 86.2901 7.79001C85.7001 5.41001 83.61 2.82999 80.97 3.04999C77.88 3.29999 77.4101 7.34001 77.1801 10.04C76.9901 12.18 77.37 14.44 78.63 16.09C80.53 18.55 83.09 18.62 84.71 16.9Z" fill="#F9E9DE"/>
<path d="M72.32 105.62C72.81 105.63 73.3101 105.66 73.8001 105.74C74.3801 105.82 74.9601 105.96 75.5401 105.9C75.8001 105.87 76.0501 105.81 76.3101 105.77C76.7101 105.71 77.11 105.72 77.51 105.72C77.88 105.73 78.25 105.73 78.62 105.74C78.72 105.74 78.8401 105.75 78.9201 105.81C79.0101 105.88 79.0401 105.99 79.0601 106.1C79.1501 106.51 79.2 106.93 79.2 107.35C79.2 107.6 79.18 107.88 79.01 108.06C78.89 108.19 78.7101 108.26 78.5401 108.31C78.2101 108.39 77.8701 108.41 77.5301 108.43C75.7801 108.53 74.0201 108.62 72.2701 108.51C71.6601 108.47 70.55 108.56 70.1 108.07C69.72 107.66 69.9101 107 70.1401 106.57C70.5801 105.75 71.48 105.61 72.32 105.62Z" fill="#537082"/>
<path d="M73.14 107.14C73.26 107.18 73.4 107.2 73.53 107.19C73.55 107.19 73.57 107.18 73.59 107.17C73.61 107.15 73.61 107.13 73.61 107.1C73.64 106.66 73.65 106.21 73.63 105.77C73.63 105.75 73.63 105.73 73.62 105.71C73.61 105.69 73.58 105.68 73.55 105.67C73.15 105.57 73.17 105.68 73.17 106.05C73.17 106.41 73.16 106.78 73.14 107.14Z" fill="#C1C1C1"/>
<path d="M74.51 106.93C74.51 106.97 74.51 107.01 74.54 107.04C74.57 107.06 74.61 107.06 74.64 107.05C74.75 107.03 74.8599 107.02 74.9699 107C74.9899 107 75.01 106.99 75.02 106.98C75.04 106.96 75.04 106.94 75.04 106.91C75.05 106.54 75.05 106.17 75.05 105.8C75.05 105.78 75.05 105.76 75.04 105.75C75.03 105.73 75.01 105.73 74.99 105.72C74.82 105.67 74.66 105.76 74.51 105.72C74.49 106.12 74.51 106.53 74.51 106.93Z" fill="#C1C1C1"/>
<path d="M75.84 106.86C75.84 106.88 75.85 106.9 75.86 106.91C75.87 106.92 75.8901 106.92 75.9101 106.92C75.9901 106.92 76.0801 106.92 76.1601 106.92C76.2001 106.92 76.2401 106.92 76.2701 106.89C76.2901 106.87 76.2901 106.84 76.3001 106.81C76.3201 106.57 76.35 105.5 75.87 105.7C75.54 105.83 75.79 106.61 75.84 106.86Z" fill="#C1C1C1"/>
<path d="M89.9301 106.21C90.0701 105.97 90.23 105.73 90.45 105.56C90.68 105.38 90.96 105.27 91.24 105.18C91.6 105.07 91.98 105 92.36 105.05C92.94 105.13 93.4601 105.52 93.7901 106.01C94.1201 106.5 94.29 107.08 94.37 107.67C94.39 107.8 94.4 107.94 94.36 108.07C94.31 108.2 94.21 108.29 94.09 108.37C93.73 108.61 93.29 108.7 92.86 108.75C92.22 108.83 91.5701 108.86 90.9201 108.89C90.6201 108.9 90.3 108.91 90.01 108.81C89.55 108.65 89.31 108.37 89.38 107.9C89.47 107.3 89.6301 106.74 89.9301 106.21Z" fill="#537082"/>
<path d="M75.2701 25.83C74.2901 33.68 72.2201 41.34 70.5601 49.08C70.4001 49.83 70.24 50.61 70.45 51.35C70.74 52.38 71.69 53.11 72.7 53.48C73.79 53.89 74.9701 53.97 76.1301 54.04C80.4401 54.28 84.7601 54.28 89.0601 54.04C89.6501 54.01 90.2601 53.97 90.7901 53.7C91.7001 53.25 92.21 52.22 92.32 51.21C92.44 50.2 92.23 49.19 92.07 48.18C91.11 42.11 91.8501 35.86 90.7801 29.8C90.4801 28.07 90.0301 26.36 89.8901 24.61C89.8101 23.6 89.8401 22.58 89.6301 21.6C89.4201 20.61 88.9201 19.63 88.0501 19.11C86.4701 18.17 84.4901 19.1 82.6701 19.35C81.4601 19.51 80.2301 19.35 79.0501 19.07C78.1401 18.86 77.23 18.23 76.57 19.06C75.38 20.57 75.5001 24.02 75.2701 25.83Z" fill="#EFEFEF"/>
<path d="M75.1701 36.01C74.0301 36.01 74.0301 37.78 75.1701 37.78C76.3101 37.77 76.3101 36.01 75.1701 36.01Z" fill="#333333"/>
<path d="M77.57 31.48C76.43 31.48 76.43 33.25 77.57 33.25C78.71 33.24 78.71 31.48 77.57 31.48Z" fill="#333333"/>
<path d="M79.64 38.36C78.5 38.36 78.5 40.13 79.64 40.13C80.78 40.12 80.78 38.36 79.64 38.36Z" fill="#333333"/>
<path d="M81.14 27.9C80 27.9 80 29.67 81.14 29.67C82.28 29.66 82.28 27.9 81.14 27.9Z" fill="#333333"/>
<path d="M73.78 43.09C72.64 43.09 72.64 44.86 73.78 44.86C74.91 44.85 74.92 43.09 73.78 43.09Z" fill="#333333"/>
<path d="M83.4 34.05C82.26 34.05 82.26 35.82 83.4 35.82C84.54 35.82 84.54 34.05 83.4 34.05Z" fill="#333333"/>
<path d="M72.9201 49.72C71.7801 49.72 71.7801 51.49 72.9201 51.49C74.0601 51.49 74.0601 49.72 72.9201 49.72Z" fill="#333333"/>
<path d="M77.89 45.43C76.75 45.43 76.75 47.2 77.89 47.2C79.02 47.19 79.02 45.43 77.89 45.43Z" fill="#333333"/>
<path d="M81.86 50.03C80.72 50.03 80.72 51.8 81.86 51.8C82.99 51.79 83 50.03 81.86 50.03Z" fill="#333333"/>
<path d="M83.4 43.09C82.26 43.09 82.26 44.86 83.4 44.86C84.54 44.85 84.54 43.09 83.4 43.09Z" fill="#333333"/>
<path d="M90.35 50.03C89.21 50.03 89.21 51.8 90.35 51.8C91.48 51.79 91.48 50.03 90.35 50.03Z" fill="#333333"/>
<path d="M90.35 42.1C91.49 42.1 91.49 40.33 90.35 40.33C89.21 40.34 89.21 42.1 90.35 42.1Z" fill="#333333"/>
<path d="M77.89 24.55C76.75 24.55 76.75 26.32 77.89 26.32C79.02 26.31 79.02 24.55 77.89 24.55Z" fill="#333333"/>
<path d="M81.86 22.48C83 22.48 83 20.71 81.86 20.71C80.72 20.71 80.72 22.48 81.86 22.48Z" fill="#333333"/>
<path d="M87.2 19.48C86.06 19.48 86.06 21.25 87.2 21.25C88.34 21.25 88.34 19.48 87.2 19.48Z" fill="#333333"/>
<path d="M89.49 29.58C88.35 29.58 88.35 31.35 89.49 31.35C90.63 31.35 90.63 29.58 89.49 29.58Z" fill="#333333"/>
<path d="M80.36 53.49C79.1 50.97 78.53 48.2 77.87 45.47C77.17 42.55 76.53 39.62 76.13 36.64C75.76 33.85 75.5799 31.05 75.5699 28.24C75.5599 26.88 75.6 25.53 75.68 24.18C75.74 23.13 75.62 18.41 77.81 19.16C77.97 19.22 78.09 18.96 77.93 18.88C76.12 17.96 75.5199 20.11 75.3499 21.48C74.8899 25.29 74.8199 29.16 75.0899 32.98C75.3399 36.56 75.9099 40.1 76.6999 43.6C77.4799 47.05 78.17 50.66 79.76 53.85C79.96 54.25 80.56 53.9 80.36 53.49Z" fill="#BC6269"/>
<path d="M91.38 34.45C91.32 34.26 91.0399 34.34 91.0799 34.53C92.2999 40.94 93.6099 47.37 91.1899 53.68C91.0299 54.11 91.72 54.3 91.88 53.87C94.28 47.6 93.33 40.71 91.38 34.45Z" fill="#BC6269"/>
<path d="M88.77 51.66C89.49 51.59 90.28 51.53 90.88 51.93C91.57 52.38 91.81 53.28 91.96 54.09C92.44 56.68 92.66 59.32 92.61 61.95C92.6 62.37 92.58 62.81 92.4 63.19C92.12 63.76 91.5201 64.09 90.9301 64.33C88.4401 65.34 85.67 65.28 82.98 65.2C82.71 65.19 82.42 65.18 82.19 65.04C81.82 64.82 81.69 64.35 81.59 63.92C80.93 60.91 80.44 57.86 80.13 54.79C80.08 54.29 80.0301 53.77 80.1701 53.29C80.6701 51.47 87.07 51.83 88.77 51.66Z" fill="#AA4A4D"/>
<path d="M90.38 54.07C89.92 58.37 83.26 59.53 81.67 55.37C81.62 55.24 81.42 55.29 81.46 55.43C83.02 60.21 90.33 58.75 90.87 54.08C90.91 53.76 90.41 53.76 90.38 54.07Z" fill="#BC6269"/>
<path d="M86.49 57.16C86.75 56.98 86.7901 56.56 86.5601 56.34C86.3001 56.09 85.85 56.2 85.71 56.52C85.69 56.56 85.6801 56.6 85.6801 56.65C85.6601 56.73 85.67 56.81 85.7 56.9C85.81 57.22 86.21 57.35 86.49 57.16Z" fill="#BC6269"/>
<path d="M89.82 34.9C89.73 32.69 89.48 30.49 89.24 28.29C89.15 27.51 89.07 26.72 88.83 25.98C88.61 25.29 88.2801 24.64 88.1601 23.93C88.0801 23.41 88.11 22.85 87.83 22.41C87.46 21.84 86.7101 21.67 86.0301 21.62C85.2501 21.56 84.3901 21.59 83.8101 22.11C82.9701 22.86 83.11 24.2 83.38 25.3C83.64 26.34 83.9501 27.38 84.1701 28.43C84.5901 30.43 84.67 32.49 85.08 34.49C85.42 36.15 85.38 37.78 85.5 39.48C85.69 42.2 85.12 44.85 84.61 47.53C84.31 49.12 83.99 50.74 84 52.36C83.71 53.3 83.4601 54.25 83.1801 55.2C83.1501 55.31 83.13 55.46 83.23 55.52C83.3 55.56 83.38 55.53 83.45 55.56C83.53 55.59 83.57 55.69 83.58 55.77C83.66 56.19 83.48 56.61 83.36 57.02C83.24 57.43 83.18 57.92 83.45 58.25C83.61 58.45 83.86 58.55 84.11 58.6C84.54 58.7 85.02 58.67 85.38 58.42C85.95 58.03 86.0801 57.26 86.1401 56.58C86.2701 55.33 86.36 54.07 86.44 52.82C87.42 48.34 88.4101 43.86 89.3901 39.38C89.5401 38.71 89.69 38.03 89.76 37.34C89.87 36.53 89.86 35.71 89.82 34.9Z" fill="#F9E9DE"/>
<path d="M97.27 29.86C96.93 29.62 96.4899 29.55 96.1899 29.26C95.7699 28.86 95.7699 28.19 95.9399 27.64C96.0999 27.09 96.4 26.57 96.47 26C96.67 24.51 95.3899 23.3 94.4399 22.13C91.9099 19.01 91.3901 14.87 91.3101 10.98C91.2901 10.13 91.38 9.23998 91.24 8.60998C91.25 8.53998 91.27 8.46999 91.28 8.39999C91.74 6.13999 91.03 4.69001 89.58 3.17001C87.22 0.680007 83.43 -0.319993 80.2 0.920007C80.12 0.950007 80.0299 0.989982 79.9399 1.01998C78.8299 1.97998 77.87 3.15001 77.46 4.67001C77.2 5.61001 77.1201 6.72001 77.3101 7.70001C77.3501 7.83001 77.3899 7.95998 77.4399 8.07998C77.4999 7.03998 77.69 5.92 78.22 5.63C78.69 5.36 81.08 6.16999 81.79 6.11999C83 6.03999 85.1501 5.21001 85.8001 6.67001C86.1301 7.41001 85.7399 8.27 85.4399 8.98C85.4199 9.02 85.41 9.04999 85.39 9.08999C85.21 9.51999 85.04 9.95998 85.01 10.11C84.78 11.4 84.61 12.57 84.61 13.53C84.15 15.23 84.07 17.05 84.13 18.83C84.14 19.09 84.15 19.36 84.26 19.59C84.68 20.5 86 20.28 86.98 20.5C87.98 20.73 88.75 21.56 89.23 22.47C90.57 25.01 90.02 28.09 90.35 30.94C90.44 31.7 90.6 32.47 90.98 33.14C91.75 34.51 93.47 35.28 95 34.94C96.54 34.6 97.77 33.18 97.89 31.62C97.97 30.97 97.81 30.24 97.27 29.86Z" fill="#8C6239"/>
<path d="M17.99 112.73C20.53 112.82 23.06 112.77 25.6 112.72C32.67 112.59 39.75 112.45 46.82 112.32C47.9199 112.3 49.34 112.06 49.42 111.21C49.49 110.45 48.3701 109.97 47.4301 109.74C44.0401 108.93 40.48 108.77 36.96 108.64C31.78 108.44 26.6 108.28 21.43 108.15C18.2 108.07 14.87 108.01 11.86 108.86C10.22 109.32 7.79003 111.28 10.4 112.22C11.12 112.48 12.59 112.36 13.37 112.43C14.9 112.56 16.44 112.68 17.99 112.73Z" fill="url(#paint2_linear)"/>
<path d="M17.99 112.73C20.53 112.82 23.06 112.77 25.6 112.72C32.67 112.59 39.75 112.45 46.82 112.32C47.9199 112.3 49.34 112.06 49.42 111.21C49.49 110.45 48.3701 109.97 47.4301 109.74C44.0401 108.93 40.48 108.77 36.96 108.64C31.78 108.44 26.6 108.28 21.43 108.15C18.2 108.07 14.87 108.01 11.86 108.86C10.22 109.32 7.79003 111.28 10.4 112.22C11.12 112.48 12.59 112.36 13.37 112.43C14.9 112.56 16.44 112.68 17.99 112.73Z" fill="url(#paint3_linear)"/>
<path d="M89.6 109.02C89.81 109.3 90.2101 109.33 90.5601 109.34C91.5601 109.36 92.5601 109.39 93.5401 109.22C93.7701 109.18 94 109.13 94.19 109C94.38 108.87 94.52 108.64 94.49 108.42C94.46 108.18 94.2401 108 94.0001 107.93C93.7601 107.87 93.5101 107.9 93.2701 107.93C92.4601 108.04 91.65 108.2 90.84 108.29C90.48 108.33 90.0101 108.25 89.6701 108.35C89.3501 108.42 89.43 108.8 89.6 109.02Z" fill="white"/>
<path d="M70.1701 108.56C70.3301 108.7 70.56 108.74 70.77 108.76C71.85 108.88 72.9401 108.86 74.0301 108.85C74.8101 108.84 75.6 108.83 76.38 108.82C77.09 108.81 77.8 108.8 78.49 108.66C78.65 108.63 78.81 108.59 78.94 108.49C79.07 108.4 79.1801 108.25 79.1801 108.09C79.1801 108.01 79.15 107.93 79.09 107.87C78.98 107.77 78.8101 107.79 78.6601 107.81C76.0601 108.22 73.4101 108.25 70.8001 107.92C70.6101 107.9 70.25 107.81 70.1 107.98C69.95 108.14 70.0201 108.44 70.1701 108.56Z" fill="white"/>
<path d="M48.61 43.2C48.46 42.71 48.2899 42.18 48.4399 41.72C48.6099 41.19 49.14 40.96 49.63 40.82C50.19 40.66 50.78 40.55 51.36 40.5C51.61 40.48 52.1999 40.41 52.4399 40.55C52.7799 40.75 52.83 41.2 52.92 41.61C53.49 44.05 54.0599 46.05 54.4499 48.31C54.4999 48.62 54.55 48.98 54.38 49.21C54.27 49.36 54.0999 49.42 53.9399 49.47C53.0399 49.76 50.3499 50.69 49.9599 49.09C49.4799 47.12 49.23 45.16 48.61 43.2Z" fill="#AA6A64"/>
<path d="M48.78 42.68C48.75 42.49 48.73 42.28 48.81 42.12C48.9 41.93 49.1 41.86 49.28 41.8C50.05 41.56 50.84 41.41 51.63 41.26C51.76 41.24 52.0699 41.18 52.1999 41.23C52.2799 41.26 52.44 41.31 52.5 41.38C52.72 41.62 52.7 41.97 52.81 42.29C52.92 42.57 52.92 42.88 53 43.17C53.09 43.49 53.1499 43.81 53.2199 44.13C53.3199 44.6 53.4399 45.08 53.5799 45.54C53.6799 45.88 53.76 46.22 53.87 46.55C53.92 46.7 53.95 46.88 53.92 47.03C53.87 47.25 53.72 47.35 53.53 47.42C53.17 47.55 52.78 47.62 52.4 47.68C51.84 47.78 51.2699 47.88 50.7099 47.98C50.5099 48.02 50.0999 48.15 49.9499 47.89C49.8699 47.75 49.8599 47.5 49.8299 47.34C49.7799 47.12 49.7399 46.91 49.6899 46.69C49.4899 45.83 49.25 44.98 49.06 44.12C48.95 43.64 48.85 43.16 48.78 42.68Z" fill="white"/>
<path d="M51.02 40.98C50.96 40.98 50.8899 40.99 50.8199 41C50.6699 41.03 50.52 41.06 50.37 41.09C50.28 41.11 50.17 41.14 50.17 41.19C50.17 41.21 50.2 41.23 50.23 41.24C50.38 41.28 51.13 41.18 51.15 41.04C51.14 41 51.09 40.98 51.02 40.98Z" fill="#5E625E"/>
<path d="M50.08 41.17C50.05 41.14 50.01 41.15 49.98 41.17C49.95 41.19 49.9399 41.23 49.9399 41.26C49.9399 41.28 49.95 41.31 49.96 41.33C49.99 41.37 50.06 41.36 50.09 41.32C50.12 41.28 50.12 41.22 50.09 41.18L50.08 41.17Z" fill="#5E625E"/>
<path d="M51.9399 48.49C51.8799 48.56 51.86 48.66 51.86 48.76C51.86 48.81 51.87 48.85 51.88 48.9C51.92 49.01 52.02 49.1 52.13 49.13C52.24 49.17 52.36 49.16 52.47 49.12C52.5 49.11 52.53 49.1 52.55 49.08C52.58 49.06 52.59 49.02 52.6 48.99C52.64 48.86 52.6399 48.72 52.5699 48.6C52.4499 48.39 52.1099 48.29 51.9399 48.49Z" fill="#EBEFEB"/>
<path d="M46.0199 45.77C45.5299 45.16 44.7499 44.79 43.9699 44.81C44.1499 44.63 44.34 44.33 44.16 44.14C44.05 44.02 43.8599 44.04 43.6999 44.06C43.0199 44.14 42.3199 44.08 41.6499 43.89C41.5899 43.87 41.5299 43.86 41.4699 43.84C37.4599 42.34 33.5799 40.5 29.8799 38.35C30.1699 37.03 30.1099 35.66 30.0499 34.31C29.9599 32.36 29.8699 30.42 29.7899 28.47C29.7599 27.72 29.6899 26.91 29.1799 26.37C28.2699 25.42 26.5199 26.04 25.9099 27.21C25.2999 28.37 25.4699 29.78 25.6599 31.08C26.1599 34.48 26.6599 37.89 27.1599 41.29C27.2199 41.68 27.2899 42.1 27.5699 42.38C27.7899 42.6 28.1099 42.68 28.4099 42.76C32.4599 43.84 36.4999 44.91 40.5499 45.99C40.5599 45.98 40.5599 45.97 40.5699 45.97C42.0399 46.82 43.8499 47.05 45.4699 46.56C45.6399 46.51 45.83 46.44 45.93 46.29C46.03 46.12 46.0399 45.94 46.0199 45.77Z" fill="#EADDD0"/>
<path d="M40.61 46.08C40.58 46.16 40.54 46.24 40.46 46.28C40.39 46.32 40.3 46.3 40.22 46.29C36.05 45.52 31.71 44.87 27.76 43.32C27.44 43.19 27.11 43.06 26.87 42.81C26.59 42.52 26.46 42.11 26.35 41.72C25.06 37.21 23.84 32.6 24 27.92C24.03 26.94 24.16 25.89 24.8 25.15C25.51 24.34 26.66 24.11 27.73 23.97C28.42 23.88 29.21 23.83 29.75 24.27C30.28 24.7 30.39 25.45 30.47 26.12C30.72 28.37 30.98 30.63 31.23 32.88C31.4 34.4 31.57 35.92 31.75 37.44C31.78 37.73 31.82 38.03 31.95 38.29C32.22 38.83 32.83 39.09 33.39 39.32C35.38 40.13 37.34 41.03 39.26 42.01C39.78 42.28 41.39 42.93 41.58 43.53C41.69 43.87 41.23 44.44 41.09 44.75C40.88 45.24 40.82 45.6 40.61 46.08Z" fill="#E8E8E8"/>
<path d="M25.46 108.81C25.91 109.14 25.3 109.39 25 109.42C24.46 109.46 23.9 109.44 23.38 109.33C23.24 109.3 23.1 109.27 22.99 109.19C22.9 109.13 22.84 109.05 22.77 108.97C22.6 108.75 22.19 108.4 22.12 108.14C22.07 107.93 22.22 107.72 22.33 107.53C22.58 107.12 23 106.7 22.98 106.21C24.15 106.32 25.26 105.98 26.23 106.24C26.31 106.59 26.62 106.87 26.47 107.14C26.56 106.96 29.38 107.57 29.71 107.62C30.25 107.71 30.79 107.79 31.33 107.83C31.75 107.86 32.57 107.69 32.81 108.06C32.89 108.19 32.92 108.34 32.94 108.49C32.95 108.6 32.95 108.72 32.91 108.82C32.84 109 32.64 109.14 32.43 109.2C30.12 109.93 27.81 108.78 25.46 108.81Z" fill="#999999"/>
<path d="M32.91 52.09C32.76 51.64 32.28 51.4 31.83 51.22C28.89 50.08 25.66 49.96 22.5 49.98C20.86 49.99 19.23 50.03 17.59 50.1C16.45 50.15 14.14 50.17 13.55 51.4C12.89 52.78 12.31 55.51 12.65 56.9C13.26 59.43 13.04 63.96 13.72 67.22C13.65 80.66 13.58 94.09 13.51 107.53C14.6 107.56 15.69 107.58 16.78 107.61C16.94 103.18 18.3 98.86 19.43 94.53C20.62 89.95 21.55 85.32 22.24 80.66C22.47 89.34 22.7 98.03 22.94 106.71C24.03 106.71 25.12 106.71 26.21 106.71C26.23 102.28 27.45 97.93 28.44 93.58C30.74 83.49 32.71 67.67 32.54 57.39C32.64 55.86 32.73 54.33 32.93 52.87C32.96 52.61 32.99 52.34 32.91 52.09Z" fill="#4D4D4D"/>
<path d="M15.98 109.68C16.42 110.02 15.8001 110.26 15.5001 110.28C14.9601 110.31 14.4001 110.27 13.8801 110.15C13.7401 110.12 13.6001 110.08 13.4901 110C13.4001 109.94 13.3401 109.85 13.2801 109.77C13.1101 109.54 12.71 109.18 12.66 108.93C12.61 108.72 12.7701 108.51 12.8901 108.32C13.1501 107.92 13.5901 107.5 13.5801 107.01C14.7401 107.15 15.8701 106.83 16.8301 107.12C16.9001 107.47 17.2 107.76 17.04 108.03C17.14 107.85 19.9401 108.52 20.2701 108.59C20.8001 108.69 21.3401 108.78 21.8901 108.84C22.3101 108.88 23.13 108.73 23.36 109.1C23.44 109.23 23.46 109.38 23.47 109.53C23.48 109.64 23.4701 109.76 23.4301 109.86C23.3501 110.04 23.1501 110.17 22.9401 110.23C20.6001 110.91 18.33 109.71 15.98 109.68Z" fill="#999999"/>
<path d="M27.72 4.24C26.63 5.07 25.97 6.34002 25.36 7.57002C24.61 9.10002 23.87 10.69 23.76 12.39C23.68 13.65 23.93 14.99 23.36 16.11C25.51 16.93 27.62 17.84 29.69 18.84C32.64 15.65 34.69 11.64 35.54 7.38002C35.57 7.24002 35.59 7.09002 35.54 6.95002C35.48 6.80002 35.34 6.7 35.21 6.61C33.37 5.39 31.24 4.70002 29.13 4.01002C28.91 3.94002 28.68 3.86003 28.45 3.89003C28.18 3.92003 27.94 4.07 27.72 4.24Z" fill="#EADDD0"/>
<path d="M32.72 49.34C32.62 47.12 32.57 44.89 32.6 42.67C32.65 37.57 32.38 32.5 32.01 27.41C31.86 25.35 31.69 23.3 31.5 21.24C31.43 20.44 29.1 19.6 28.52 19.48C28.17 19.41 27.83 19.3 27.5 19.19C27.18 19.08 26.86 18.96 26.55 18.84C24.96 18.23 23.38 17.62 21.79 17.01C21.55 16.92 21.3 16.83 21.06 16.88C20.87 16.92 20.71 17.04 20.56 17.16C17.6 19.55 16.79 23.44 15.98 26.97C14.15 34.91 13.12 43.02 12.9 51.14C12.9 51.14 13.37 52.43 14.96 53.34C16.55 54.25 22.28 54.92 22.28 54.92L30.08 54.07C30.05 54.08 32.84 53.19 32.72 49.34Z" fill="#EFEFEF"/>
<path d="M43.1999 42.83C43.2999 42.33 43.42 41.79 43.75 41.44C44.13 41.04 44.66 41.05 45.11 41.13C45.63 41.22 46.15 41.37 46.64 41.56C46.85 41.64 47.35 41.83 47.48 42.05C47.66 42.36 47.49 42.79 47.38 43.19C46.71 45.59 46.25 47.61 45.52 49.77C45.42 50.07 45.29 50.4 45.05 50.54C44.9 50.63 44.7299 50.6101 44.5699 50.5901C43.7199 50.4801 41.14 50.18 41.56 48.61C42.08 46.66 42.7899 44.81 43.1999 42.83Z" fill="#3D3D3D"/>
<path d="M43.5699 42.43C43.6399 42.25 43.71 42.06 43.85 41.95C44.01 41.82 44.2 41.84 44.37 41.86C45.09 41.97 45.8 42.16 46.5 42.36C46.61 42.39 46.89 42.47 46.97 42.57C47.02 42.63 47.12 42.74 47.14 42.83C47.21 43.14 47.02 43.44 46.97 43.77C46.92 44.07 46.78 44.34 46.71 44.63C46.64 44.95 46.5399 45.26 46.4399 45.57C46.2999 46.03 46.1799 46.5 46.0699 46.97C45.9899 47.31 45.9 47.64 45.84 47.98C45.81 48.14 45.75 48.3 45.66 48.43C45.52 48.61 45.3601 48.63 45.1801 48.61C44.8301 48.57 44.49 48.47 44.16 48.38C43.66 48.23 43.17 48.09 42.67 47.94C42.49 47.89 42.11 47.84 42.11 47.54C42.11 47.38 42.22 47.16 42.26 47C42.32 46.79 42.3799 46.58 42.4399 46.36C42.6699 45.51 42.88 44.66 43.12 43.81C43.26 43.35 43.4099 42.89 43.5699 42.43Z" fill="white"/>
<path d="M46.14 41.85C46.09 41.82 46.03 41.8 45.97 41.79C45.84 41.75 45.7 41.72 45.57 41.68C45.49 41.66 45.39 41.64 45.37 41.68C45.36 41.7 45.37 41.73 45.39 41.75C45.49 41.85 46.14 42.07 46.21 41.95C46.23 41.92 46.19 41.88 46.14 41.85Z" fill="#5E625E"/>
<path d="M45.3 41.62C45.29 41.59 45.26 41.57 45.22 41.58C45.19 41.59 45.16 41.61 45.15 41.65C45.14 41.67 45.13 41.6999 45.14 41.7199C45.15 41.7699 45.2 41.79 45.24 41.77C45.28 41.75 45.3 41.7 45.3 41.65V41.62Z" fill="#5E625E"/>
<path d="M43.4201 48.9C43.3401 48.94 43.27 49.02 43.23 49.11C43.21 49.15 43.1901 49.2 43.1801 49.24C43.1601 49.36 43.2 49.47 43.27 49.55C43.34 49.63 43.4501 49.67 43.5501 49.68C43.5801 49.68 43.61 49.68 43.63 49.67C43.66 49.66 43.69 49.64 43.71 49.61C43.8 49.52 43.87 49.38 43.87 49.25C43.88 49.02 43.6501 48.79 43.4201 48.9Z" fill="#EBEFEB"/>
<path d="M28.4099 11.37C28.0699 11.01 27.6399 10.61 27.1399 10.68C26.6799 10.74 26.3599 11.19 26.2699 11.65C26.1799 12.1 26.2599 12.57 26.2899 13.03C26.2999 13.13 26.2899 13.24 26.2299 13.31C26.1599 13.39 26.0399 13.39 25.9299 13.4C25.5199 13.44 25.1399 13.66 24.8999 13.99C24.7199 14.24 24.6199 14.55 24.3999 14.78C24.1099 15.09 23.6699 15.19 23.2499 15.25C22.8399 15.31 22.44 15.36 22.03 15.38C21.7 15.4 21.3099 15.38 21.1199 15.1C21.0799 15.05 21.0599 14.99 21.0699 14.92C21.0899 14.81 21.1999 14.76 21.2899 14.7C21.6299 14.47 21.7499 14.02 21.7699 13.61C21.7999 13.2 21.7699 12.77 21.9499 12.39C22.0499 12.18 22.2099 12 22.3699 11.84C23.5299 10.64 25.0499 9.84 26.6399 9.38C27.0599 9.26 28.6399 8.68998 28.9999 9.01998C29.3399 9.32998 28.4999 10.92 28.4099 11.37Z" fill="#D7C68E"/>
<path d="M34.2501 9C34.4601 9.12 34.6601 9.28001 34.7801 9.48001C34.8601 9.61001 34.9001 9.76001 34.9701 9.89001C35.1301 10.2 35.4301 10.43 35.7701 10.5C35.7701 10.18 35.7701 9.85 35.7801 9.53C35.7801 9.46 35.7801 9.37999 35.8401 9.32999C35.9201 9.25999 36.0401 9.29999 36.1301 9.23999C36.2101 9.18999 36.2201 9.07999 36.2301 8.98999C36.2501 8.57999 36.2701 8.15001 36.1301 7.76001C36.0801 7.62001 36.0001 7.47999 35.8801 7.39999C35.7501 7.30999 35.5901 7.29999 35.4301 7.29999C34.6801 7.27999 33.1201 7.38 32.5401 7.97C31.9301 8.6 33.8401 8.77 34.2501 9Z" fill="#D7C68E"/>
<path d="M14.26 50.35C14.37 51.01 14.52 51.68 14.38 52.33C14.28 52.79 14.03 53.2 13.74 53.55C12.43 55.13 10.3 55.6 8.31001 55.73C5.97001 55.89 3.33 55.57 1.8 53.68C0.860002 52.52 0.520011 50.93 0.560011 49.41C0.600011 47.89 0.990009 46.4 1.37001 44.94C2.30001 41.38 3.24 37.82 4.17 34.26C4.32 33.69 4.48001 33.1 4.87001 32.68C5.39001 32.12 6.18 31.97 6.92 31.89C8.28 31.73 9.67001 31.65 11 31.96C12.11 32.22 13.81 32.95 14.33 34.13C14.91 35.46 14.48 37.79 14.39 39.21C14.15 42.92 13.62 46.67 14.26 50.35Z" fill="#736357"/>
<path d="M16.45 25.29C17.62 23.5 19.26 21.84 21.48 20.94C23.7 20.04 26.57 20.05 28.5 21.32C30.4 22.57 31.03 24.7 31.28 26.69C31.74 30.29 31.35 33.94 30.48 37.49C30.11 39.02 29.64 40.55 28.79 41.95C27.75 43.66 26.18 45.1 24.55 46.46C21.39 49.09 17.73 51.57 13.32 52.34C12.85 52.42 12.34 52.5 12.03 52.79C11.43 53.35 12.03 54.32 12.9 54.53C13.77 54.74 14.7 54.45 15.51 54.12C19.59 52.47 22.92 49.81 26.17 47.2C27.31 46.29 28.46 45.36 29.17 44.19C29.76 43.22 30.02 42.14 30.27 41.07C31.19 37.12 32.12 33.15 32.42 29.13C32.54 27.45 32.56 25.74 32 24.12C31.44 22.5 30.24 20.97 28.44 20.18C27.36 19.71 26.13 19.51 24.91 19.48C21.98 19.41 19.04 20.28 16.84 21.87C15.95 22.51 15.15 23.3 14.84 24.25C14.56 25.1 14.69 26.27 15.59 26.83C15.9 26.36 16.12 25.79 16.45 25.29Z" fill="#736357"/>
<path d="M3.97995 27.27C5.28995 25.66 7.35999 24.41 9.64999 24.32C10.83 24.27 12 24.52 13.12 24.85C13.93 25.09 14.7399 25.39 15.3499 25.91C16.3199 26.73 16.61 27.97 16.65 29.13C16.7 30.37 16.52 31.62 16.13 32.82C15.98 33.29 15.78 33.76 15.38 34.11C14.79 34.63 13.88 34.77 13.03 34.82C9.87 35.04 6.65999 34.56 3.76999 33.45C2.08999 32.81 1.59998 32.65 2.06998 31.07C2.46998 29.72 3.04995 28.41 3.97995 27.27Z" fill="#63564B"/>
<path d="M8.90001 46.1C9.32001 46.02 9.81998 45.93 10.12 46.24C10.27 46.4 10.33 46.63 10.37 46.85C10.64 48.39 10.43 50.01 9.76 51.43C9.54 51.9 9.27 52.35 8.89 52.7C8.12 53.41 7.01996 53.61 5.96996 53.59C5.35996 53.58 4.71996 53.49 4.21996 53.15C3.41996 52.6 3.14999 51.56 3.06999 50.59C2.99999 49.72 3.01996 48.84 3.15996 47.98C3.22996 47.51 3.31996 46.1 3.84996 45.92C4.11996 45.83 4.74996 46.11 5.03996 46.16C5.46996 46.23 5.91001 46.28 6.34001 46.3C7.20001 46.33 8.06001 46.27 8.90001 46.1Z" fill="#63564B"/>
<path d="M2.91 46.78C2.89 46.86 2.88003 46.96 2.94003 47.02C2.98003 47.06 3.04001 47.06 3.10001 47.06C5.16001 47.15 7.22006 47.23 9.28006 47.32C9.65006 47.34 10.06 47.34 10.35 47.11C10.71 46.83 10.7501 46.27 10.5301 45.88C10.3101 45.49 9.87002 45.25 9.43002 45.16C8.99002 45.07 8.53005 45.1 8.08005 45.12C6.85005 45.19 5.61004 45.25 4.38004 45.22C4.04004 45.21 3.75001 45.13 3.48001 45.38C3.16001 45.68 3 46.37 2.91 46.78Z" fill="#63564B"/>
<path d="M10.3001 38.11C10.3701 38.11 10.4401 38.11 10.5001 38.14C10.6001 38.19 10.6301 38.32 10.6501 38.43C10.7501 39.02 10.76 39.64 10.66 40.23C10.65 40.3 10.6301 40.37 10.5801 40.4C10.5401 40.43 10.4801 40.43 10.4301 40.43C8.44006 40.38 6.44008 40.33 4.45008 40.26C4.44008 39.83 4.47007 39.39 4.56007 38.96C4.79007 37.87 6.08007 38.2 6.94007 38.18C8.06007 38.16 9.18006 38.14 10.3001 38.11Z" fill="#63564B"/>
<path d="M2.97998 36.47C2.97998 36.97 2.99999 37.48 2.92999 37.98C2.74999 39.33 1.95998 40.52 1.09998 41.59C1.42998 41.72 1.76998 41.85 2.09998 41.98C2.30998 41.5 2.50997 41.02 2.71997 40.55C2.91997 40.08 3.13001 39.6 3.26001 39.1C3.42001 38.48 3.44999 37.84 3.48999 37.2C3.52999 36.44 4.09003 33.65 3.53003 33.14C2.82003 33.46 2.98998 35.78 2.97998 36.47Z" fill="#63564B"/>
<path d="M34.5599 53.69C34.9599 54.03 35.3799 54.37 35.8799 54.52C36.3799 54.67 36.99 54.59 37.32 54.18C37.67 53.74 37.59 53.08 37.28 52.61C36.97 52.14 36.48 51.83 36.01 51.53C36.33 51.65 36.66 51.25 36.59 50.92C36.51 50.58 36.1799 50.37 35.8499 50.27C35.5199 50.17 35.1699 50.15 34.8499 50.02C34.5599 49.91 34.13 49.85 33.89 49.66C32.85 48.84 32.4399 48.28 31.0599 46.96C30.6699 46.59 30.3299 46.2 29.9699 45.8C29.7199 45.52 29.49 45.22 29.2 44.98C28.77 44.62 28.05 44.54 27.64 44.16C27.31 43.86 27.0099 43.6 26.5399 43.81C25.7899 44.16 25.8899 45.27 26.2499 45.85C26.8499 46.8 27.9399 47.63 28.7399 48.41C29.6399 49.29 30.5599 50.15 31.4899 51C32.4899 51.91 33.5199 52.81 34.5599 53.69Z" fill="#EDD5BE"/>
<path d="M25.7401 39.54C25.5101 39.28 25.2701 39.02 25.1301 38.7C24.9701 38.34 24.9401 37.93 24.9501 37.52C25.0001 35.77 25.8101 34.11 26.6001 32.5C27.0801 31.53 27.5601 30.56 28.1401 29.66C28.5401 29.04 29.0401 28.17 29.1701 27.47C29.3201 26.66 29.4601 25.1 29.3601 24.81C28.8501 23.28 27.6301 21.95 25.9301 21.94C25.4501 21.94 23.7001 22.6 23.3601 22.95C22.9601 23.36 22.2601 24.54 21.7501 25.09C21.5901 25.27 21.5101 25.5 21.4301 25.72C21.2101 26.33 21.0001 26.94 20.7801 27.55C20.5201 28.27 20.2701 28.99 20.0901 29.73C19.8401 30.73 19.7301 31.76 19.7601 32.77C19.7901 33.67 19.4701 35 19.6101 35.88C19.7501 36.78 19.6301 37.94 19.7701 38.84C19.8701 39.48 19.9701 40.12 20.2101 40.71C20.4401 41.27 20.8001 41.77 21.1701 42.25C22.9601 44.54 29.5901 49.82 31.7601 51.74L33.8801 49.38C31.8201 47.93 27.4301 41.41 25.7401 39.54Z" fill="#E3E3E3"/>
<path d="M22.9499 4.25001C22.3299 4.74001 21.5299 4.92 20.8299 5.27C20.1299 5.62 19.4599 6.31001 19.5799 7.09001C19.7299 8.05001 20.9999 8.62001 20.9699 9.59001C20.9599 9.93001 20.7799 10.25 20.7599 10.59C20.6899 11.48 21.7 12.14 22.59 12.08C23.48 12.02 24.26 11.49 25.03 11.02C27.96 9.24 31.3499 8.26001 34.7699 8.16001C35.3399 8.14001 35.9399 8.15 36.4499 7.9C36.9699 7.66 37.3799 7.07 37.2199 6.52C36.9999 5.74 35.9199 5.60002 35.4499 4.95002C35.1899 4.59002 35.1399 4.12 34.9699 3.71C34.6499 2.97 33.9499 2.49 33.2699 2.05C31.8899 1.14 30.4299 0.209996 28.7899 0.0799959C27.3299 -0.0400041 25.8099 0.520014 24.6499 1.38001C23.6099 2.17001 23.9899 3.42001 22.9499 4.25001Z" fill="#D7C68E"/>
<defs>
<linearGradient id="paint0_linear" x1="68.4721" y1="108.058" x2="108.952" y2="110.054" gradientUnits="userSpaceOnUse">
<stop stop-color="#4D4D4D"/>
<stop offset="1"/>
</linearGradient>
<linearGradient id="paint1_linear" x1="68.4721" y1="108.058" x2="108.952" y2="110.054" gradientUnits="userSpaceOnUse">
<stop/>
<stop offset="1"/>
</linearGradient>
<linearGradient id="paint2_linear" x1="9.30825" y1="109.783" x2="49.3929" y2="111.76" gradientUnits="userSpaceOnUse">
<stop stop-color="#4D4D4D"/>
<stop offset="1"/>
</linearGradient>
<linearGradient id="paint3_linear" x1="9.30825" y1="109.783" x2="49.3929" y2="111.76" gradientUnits="userSpaceOnUse">
<stop/>
<stop offset="1"/>
</linearGradient>
</defs>
</svg>
