<?xml version="1.0" standalone="no"?><!DOCTYPE svg PUBLIC "-//W3C//DTD SVG 1.1//EN" "http://www.w3.org/Graphics/SVG/1.1/DTD/svg11.dtd"><svg t="1728702189848" class="icon" viewBox="0 0 1110 1024" version="1.1" xmlns="http://www.w3.org/2000/svg" p-id="18364" xmlns:xlink="http://www.w3.org/1999/xlink" width="216.796875" height="200"><path d="M572.377762 54.631569l409.570556 368.207469v580.792847H109.025692v-580.792847z" fill="#E8E8E8" p-id="18365"></path><path d="M567.586102 0L338.616951 191.063276V69.296232H165.889254v265.93474L0 490.012503l112.967296 121.776541 449.63719-400.756562 435.917561 390.983286 112.017512-112.003265z" fill="#EB7A7A" p-id="18366"></path><path d="M41.847478 942.556032h1004.828612v81.439219H41.847478z" fill="#D9D9D9" p-id="18367"></path><path d="M576.936724 395.584989h-3.936854s-354.616061 3.765893 0 508.371826h3.936854c354.625559-504.605932 0-508.371826 0-508.371826z m-3.457213 182.391749c-33.028735 0-59.803142-26.774408-59.803142-59.803143s26.774408-59.803142 59.803142-59.803142c33.023986 0 59.798394 26.774408 59.798394 59.803142-0.004749 33.028735-26.774408 59.803142-59.798394 59.803143z" fill="#00CCC6" p-id="18368"></path></svg>