<?xml version="1.0" standalone="no"?><!DOCTYPE svg PUBLIC "-//W3C//DTD SVG 1.1//EN" "http://www.w3.org/Graphics/SVG/1.1/DTD/svg11.dtd"><svg t="1728715335058" class="icon" viewBox="0 0 1024 1024" version="1.1" xmlns="http://www.w3.org/2000/svg" p-id="49107" xmlns:xlink="http://www.w3.org/1999/xlink" width="200" height="200"><path d="M926.7 563.1c-11-62-52.9-114.1-111.2-138.1-3.6-1.5-6.1-4.8-6.5-8.7-0.4-3.9 1.5-7.7 4.8-9.8 45.9-29.5 67.6-85.3 53.6-138.1s-60.5-90.5-115.1-93.3c-5.2-0.3-10.5-0.2-15.7 0.2 9.4 24.8 14.6 51.1 15.1 77.6 1.5 64.8-24 127.3-70.4 172.6a322.19 322.19 0 0 1 139.2 168.3h80.1c7.8 0 15.1-3.3 20.2-9.3 5-6 7.2-13.8 5.9-21.4zM353.5 425.5c-66.4-65.2-88.1-163.3-55.4-250.4l-1.9-0.1c-57.1-3.2-109.1 32.4-126.7 86.8s3.6 113.8 51.7 144.7c3.3 2.1 5.1 5.9 4.7 9.8-0.4 3.9-2.9 7.2-6.5 8.7-58.2 24-100.2 76.1-111.2 138.1-1.3 7.7 0.9 15.5 5.9 21.4s12.4 9.3 20.2 9.3h80a322.19 322.19 0 0 1 139.2-168.3z" fill="#616B3E" p-id="49108" data-spm-anchor-id="a313x.search_index.0.i31.191e3a81Tctgs5" class="selected"></path><path d="M791.2 654.5c-16.6-93.7-79.9-172.4-167.9-208.7-5.5-2.2-9.3-7.3-9.8-13.2-0.5-5.9 2.3-11.6 7.3-14.8 55.5-35.8 88.4-97.9 86.9-163.9-2.3-99-81.1-180.7-180-185.9-86.1-4.7-164.6 49.2-191.3 131.2-26.6 82 5.3 171.7 77.7 218.5 4.9 3.2 7.7 8.9 7.1 14.8s-4.3 10.9-9.8 13.2c-88 36.3-151.3 115.1-167.9 208.8-0.9 5.6-0.7 11.3 0.7 16.7h546c1.7-5.4 1.9-11.1 1-16.7z m-271.4 10.8v-0.7l-0.7 0.7-64.8-59.6 48.6-114.3c-15.3-15.9-25.6-43.4-25.6-43.4l-0.1-1.7c15.3-12.6 29.7-16.4 41.9-16h0.8c12.2-0.4 26.6 3.4 41.9 16l-0.1 1.7s-10.2 27.5-25.6 43.4l48.6 114.3-64.9 59.6z" fill="#616B3E" p-id="49109" data-spm-anchor-id="a313x.search_index.0.i30.191e3a81Tctgs5" class="selected"></path><path d="M485.8 751.6c-24.7 6.6-42 32.3-44.3 56.9-2.5 25.9 7.8 53 30.9 66.7 10.2 6.1 22.6 8.4 34.4 6.7 13-1.9 23.7-9.2 32.4-18.7 18.3-22.1 21.3-56.2 7.7-81.5-12-22.3-35.6-37-61.1-30.1zM738.2 831.6c-3.5-1.2-7.2-1.2-10.8-1.2h-77V877h70.1c8.6-0.1 18.6-0.8 25.6-6.4 5.5-4.3 7.5-11.2 7.4-18-0.1-9.6-6.1-18-15.3-21zM736.7 791.4c8.8-4.5 12.3-14.9 9.5-24.2-2.8-9.4-13.5-10.7-21.9-10.8-24.6-0.1-49.3 0-73.9 0v39h41.5c13.8 0 32.2 2.4 44.8-4z" fill="#616B3E" p-id="49110" data-spm-anchor-id="a313x.search_index.0.i33.191e3a81Tctgs5" class="selected"></path><path d="M866.4 671.1H159.5c-27.8 0-48.2 26.1-41.4 53.1l49.6 198.5c4.7 19 21.9 32.4 41.4 32.4h607.6c19.6 0 36.7-13.3 41.4-32.4l49.7-198.5c6.7-26.9-13.7-53.1-41.4-53.1zM376.5 771.6v59.2c0 17.2-0.2 34.6-8.3 50.2-12.3 23.8-38.7 31.7-63.8 32-15 0.2-30 0-44.9 0-2.7 0-5-2.3-5-5v-26.1c0-2.7 2.3-5 5-5h42.6c9.7 0 20.2-1.2 28.1-7.5 9-7.2 11.2-19 11.3-29.9v-14.3-100c0-2.7 2.3-5 5-5h25c2.7 0 5 2.3 5 5v46.4z m170.1 132.3c-32.8 22.8-77.9 18-107.1-8.2-30.6-27.5-40.4-72.9-28.9-111.7 11.5-39 46.2-68.7 87.5-69 22.1 0.2 42.7 7.9 59 23 16.6 15.4 28.4 35.7 32.3 58.1 7.2 40.9-8 83.6-42.8 107.8z m236.8-25.4c-10.6 24.4-37 34.3-62.2 34.5-8.8 0.1-17.7 0-26.5 0h-75.5c-2.7 0-5-2.3-5-5v-22.6-98.6-61.5c0-2.7 2.3-5 5-5h29.1c25.3 0 50.5-0.1 75.8 0 20.8 0.1 43.3 7.5 53.2 27.2 10 19.8 6.9 45.4-7.4 62.2 8.3 7.6 14.4 17 16.9 28.3 3.1 13.3 2.1 28-3.4 40.5z" fill="#616B3E" p-id="49111" data-spm-anchor-id="a313x.search_index.0.i32.191e3a81Tctgs5" class="selected"></path></svg>