<?xml version="1.0" standalone="no"?><!DOCTYPE svg PUBLIC "-//W3C//DTD SVG 1.1//EN" "http://www.w3.org/Graphics/SVG/1.1/DTD/svg11.dtd"><svg t="1728726518796" class="icon" viewBox="0 0 1024 1024" version="1.1" xmlns="http://www.w3.org/2000/svg" p-id="48528" xmlns:xlink="http://www.w3.org/1999/xlink" width="200" height="200"><path d="M511.488 2.56C230.912 2.56 3.584 229.888 3.584 510.464c0 280.576 227.328 507.904 507.904 507.904 280.576 0 507.904-227.328 507.904-507.904C1019.392 229.888 792.064 2.56 511.488 2.56zM390.656 192.512c108.544-73.728 160.256 13.312 243.2 0 6.656 51.712 4.096 121.856-3.584 162.816-5.12 27.136-16.384 51.712-32.256 71.68-22.528 27.136-53.248 44.544-87.552 44.544-34.304 0-65.536-17.408-87.552-44.544-15.36-18.944-26.624-42.496-31.744-69.12-8.192-59.904-8.704-115.712-0.512-165.376zM268.8 710.656l39.424-150.528c5.12-25.088 16.896-44.544 33.28-59.392l2.56-2.048 3.072-1.024 87.552-22.528 17.408 13.312 50.176 105.984H346.624v206.336H322.56c-60.928 0.512-67.072-37.376-53.76-90.112z m404.992 147.968H353.792l-17.408-31.232h358.4l-20.992 31.232z m26.112-57.344h-13.312v-206.848h-160.768l46.08-105.984 16.896-13.312 90.624 22.528 4.608 1.024 3.072 3.584c13.312 17.408 22.016 37.376 26.624 58.368l1.024-0.512 39.424 150.528c13.312 52.736 6.656 90.624-54.272 90.624z" fill="#F0F1A7" p-id="48529"></path></svg>