<?xml version="1.0" standalone="no"?><!DOCTYPE svg PUBLIC "-//W3C//DTD SVG 1.1//EN" "http://www.w3.org/Graphics/SVG/1.1/DTD/svg11.dtd"><svg t="1728702240680" class="icon" viewBox="0 0 1024 1024" version="1.1" xmlns="http://www.w3.org/2000/svg" p-id="23705" xmlns:xlink="http://www.w3.org/1999/xlink" width="200" height="200"><path d="M800 496v368a96 96 0 0 1-96 96H320a96 96 0 0 1-96-96V496z" fill="#61A838" p-id="23706"></path><path d="M541.44 496H400v-80l-64-96-28.64 42.88v0.16l-14.72 22.08-5.92-10.24-128-221.6 138.56-80L464 361.92 541.44 496zM246.72 305.6l55.36-32M206.72 236.32l27.68-16M640 384h128v112h-128z" fill="#FCAA35" p-id="23707"></path><path d="M640 320h128v64h-128z" fill="#AA571B" p-id="23708"></path><path d="M688 208h32a48 48 0 0 1 48 48v64h-128v-64a48 48 0 0 1 48-48z" fill="#EE4D4E" p-id="23709"></path><path d="M592 240v256h-50.56L464 361.92V240a80 80 0 0 0 128 0z" fill="#438FD0" p-id="23710"></path><path d="M464 240l64-96 64 96a80 80 0 0 1-128 0z" fill="#CD8538" p-id="23711"></path><path d="M592 240a80 80 0 0 1-128 0l64-96z" fill="#CD8538" p-id="23712"></path><path d="M400 416v80h-128v-80a80 80 0 0 0 56.64 32 55.04 55.04 0 0 0 7.36 0 80 80 0 0 0 64-32z" fill="#E32728" p-id="23713"></path><path d="M400 416a80 80 0 0 1-64 32 55.04 55.04 0 0 1-7.36 0A80 80 0 0 1 272 416l20.64-30.88 14.72-22.08L336 320z" fill="#EE4D4E" p-id="23714"></path><path d="M416 592h384v208H416z" fill="#F2C05C" p-id="23715"></path></svg>