<?xml version="1.0" standalone="no"?><!DOCTYPE svg PUBLIC "-//W3C//DTD SVG 1.1//EN" "http://www.w3.org/Graphics/SVG/1.1/DTD/svg11.dtd"><svg t="1728702074923" class="icon" viewBox="0 0 1024 1024" version="1.1" xmlns="http://www.w3.org/2000/svg" p-id="11321" xmlns:xlink="http://www.w3.org/1999/xlink" width="200" height="200"><path d="M707.5 840.6H319.8c-5 0-9-4-9-9V271.4c0-22.8 18.5-41.2 41.2-41.2h394.5c1.2 0 20.2 4.8 20.2 6l-3 564c0 22.7-33.4 40.4-56.2 40.4z" fill="#25B195" p-id="11322"></path><path d="M685.9 877.6H343.2c-57.4 0-104-46.7-104-104V259.3c0-57.4 46.7-104 104-104h343.2c27.9 0 54.1 10.9 73.7 30.8 19.5 19.7 30 45.7 29.7 73.3v514.2c0.1 57.3-46.5 104-103.9 104zM343.2 192.2c-37 0-67 30.1-67 67v514.3c0 37 30.1 67 67 67h342.7c37 0 67-30.1 67-67V259c0.2-17.7-6.6-34.4-19.1-47-12.6-12.8-29.5-19.8-47.4-19.8H343.2z" fill="#666767" p-id="11323"></path><path d="M558.6 803.1H455.1c-14.4 0-26.2-11.8-26.2-26.2 0-14.4 11.8-26.2 26.2-26.2h103.5c14.4 0 26.2 11.8 26.2 26.2 0.1 14.4-11.7 26.2-26.2 26.2zM672.8 728.6H356.3c-23.8 0-43.2-19.4-43.2-43.2v-408c0-23.8 19.4-43.2 43.2-43.2h316.5c23.8 0 43.2 19.4 43.2 43.2v408c0.1 23.8-19.3 43.2-43.2 43.2zM356.3 271.1c-3.4 0-6.2 2.8-6.2 6.2v408c0 3.4 2.8 6.2 6.2 6.2h316.5c3.4 0 6.2-2.8 6.2-6.2v-408c0-3.4-2.8-6.2-6.2-6.2H356.3z" fill="#666767" p-id="11324"></path></svg>