<?xml version="1.0" standalone="no"?><!DOCTYPE svg PUBLIC "-//W3C//DTD SVG 1.1//EN" "http://www.w3.org/Graphics/SVG/1.1/DTD/svg11.dtd"><svg t="1728715954348" class="icon" viewBox="0 0 1024 1024" version="1.1" xmlns="http://www.w3.org/2000/svg" p-id="65061" xmlns:xlink="http://www.w3.org/1999/xlink" width="200" height="200"><path d="M995.436384 872.917663l-208.548269-208.616009a89.416538 89.416538 0 0 0-27.25398-18.086527 410.954796 410.954796 0 0 0 68.981697-227.989592c0-228.125072-184.884498-412.98699-413.00957-412.98699C187.503771 5.238545 2.619272 190.123043 2.619272 418.225535c0 228.102492 184.884498 412.98699 412.98699 412.98699 84.358633 0 162.643264-25.605645 228.057332-68.981698 4.245028 9.822271 10.002911 19.192944 17.996208 27.20882l208.638588 208.593429a88.468181 88.468181 0 0 0 125.137994 0 88.423021 88.423021 0 0 0 0-125.115413z m-579.830122-159.707872c-162.936803 0-294.984256-132.047453-294.984255-294.961676 0-162.936803 132.047453-294.984256 294.984255-294.984256 162.959383 0 294.984256 132.047453 294.984256 294.984256 0 162.914223-132.024873 294.961676-294.984256 294.961676z" fill="#ffffff" p-id="65062"></path></svg>