<?xml version="1.0" standalone="no"?><!DOCTYPE svg PUBLIC "-//W3C//DTD SVG 1.1//EN" "http://www.w3.org/Graphics/SVG/1.1/DTD/svg11.dtd"><svg t="1728713868232" class="icon" viewBox="0 0 1024 1024" version="1.1" xmlns="http://www.w3.org/2000/svg" p-id="29369" xmlns:xlink="http://www.w3.org/1999/xlink" width="200" height="200"><path d="M232.248609 0h505.878008A114.535493 114.535493 0 0 1 852.197148 114.225518V356.47041l-58.585136 44.946269V129.25927A66.179507 66.179507 0 0 0 728.207441 62.924777L312.376958 61.994854l53.935523 46.49614a24.023006 24.023006 0 0 1 2.479794 33.942183l-232.480702 291.995762v441.868321A56.415317 56.415317 0 0 0 154.755042 919.848645c12.088997 11.934009 32.547298 12.863932 50.680793 12.863933h136.233691l-21.698199 61.994854H191.486993A114.225518 114.225518 0 0 1 77.261474 881.101862V425.904647a22.473135 22.473135 0 0 1 1.859846-9.144241L208.690565 17.048585a36.112002 36.112002 0 0 1 1.704858-4.33964A26.347813 26.347813 0 0 1 215.509998 6.199485H216.749896a19.528379 19.528379 0 0 1 6.974421-4.804601H226.359098A23.713032 23.713032 0 0 1 232.248609 0z m-11.779022 656.68049v38.591797h250.304223v-38.591797z m0-104.461329v38.43681h250.304223v-38.43681z m0-98.571817v38.591796h500.608445v-38.591796z m258.673528-119.185107v38.591797h241.934917v-38.591797z m0-106.321174v38.436809h241.934917v-38.436809z m0-97.176934v38.436809h241.934917V130.964129z m350.890873 321.443318L440.706305 841.735129 557.721592 958.595429l389.017709-389.327683-116.705313-116.860299zM425.672553 859.713637l-44.481307 126.624489L418.233171 1024l122.439836-48.820947-115.465415-115.465416zM852.197148 743.938247l-58.430149 57.34524-3.564704 65.249584a66.954442 66.954442 0 0 1-13.948843 48.820947 77.493567 77.493567 0 0 1-52.230664 17.203572h-71.449069L619.716446 975.024065l20.458302 20.303315h98.571818A114.535493 114.535493 0 0 0 852.197148 881.101862V743.938247zM177.693138 302.3799l139.488421-172.965642-64.93961-57.035266z" fill="#616B3E" p-id="29370"></path></svg>