<?xml version="1.0" standalone="no"?><!DOCTYPE svg PUBLIC "-//W3C//DTD SVG 1.1//EN" "http://www.w3.org/Graphics/SVG/1.1/DTD/svg11.dtd"><svg t="1728715499221" class="icon" viewBox="0 0 1024 1024" version="1.1" xmlns="http://www.w3.org/2000/svg" p-id="62022" data-spm-anchor-id="a313x.search_index.0.i35.191e3a81Tctgs5" xmlns:xlink="http://www.w3.org/1999/xlink" width="200" height="200"><path d="M1024 247.644a0.504 0.504 0 0 0-0.497-0.503H894.015c-14.025 0-27.362-9.411-38.081-17.447-16.06-12.042-30.52-26.106-45.1-39.826-24.572-23.079-54.828-54.855-91.257-54.855h-225.26L329.553 135c-36.428 0-66.684 31.776-91.256 54.868-13.549 12.729-26.978 25.709-41.637 37.169-11.526 9.014-26.158 20.104-41.544 20.104H25.13c-30.824 0-30.824 47.796 0 47.796h129.986c37.513 0 69.117-27.11 95.288-50.981 14.329-13.06 28.088-26.767 42.8-39.39 9.24-7.944 23.118-21.757 36.35-21.757h75.329l-91.151 91.151c-21.189 21.176-31.34 52.225-18.85 80.63 11.58 26.304 38.174 42.232 65.456 47.902 62.138 12.888 124.289-21.902 168.106-63.103h121.05l235.03 235.042c29.435 29.437-16.114 75.078-45.563 45.721L687.497 468.674c-21.783-21.822-55.582 12.002-33.798 33.799L826.02 674.795c29.463 29.463-16.139 75.197-45.588 45.721L608.03 548.128c-21.757-21.81-55.582 12.001-33.799 33.798L722.366 730.06c19.906 19.906 5.525 55.198-22.748 55.171-8.618 0-16.734-3.357-22.828-9.477L528.604 627.568c-21.783-21.81-55.582 12.001-33.799 33.798L618.91 785.469c29.304 29.53-16.311 74.973-45.721 45.563L556.97 814.84c26-49.673-7.31-111.626-63.407-116.503 3.727-40.355-23.872-77.762-63.83-85.402 11.117-47.994-24.466-95.658-73.875-97.879 3.543-71.72-85.56-110.687-136.092-60.168l-85.705 85.732c-12.438 12.464-19.708 28.035-22.233 44.227h-86.71c-30.824 0-30.824 47.783 0 47.783h94.099c12.24 24.81 36.138 41.742 63.816 44.333-4.785 51.035 39.733 93.583 90.411 86.485 6.477 49.647 58.556 81.555 105.717 65.006 8.843 34.975 41.174 59.864 77.22 59.864 21.373 0 41.491-8.367 56.612-23.488l13.192-13.191 13.191 13.191c42.853 42.906 118.777 22.537 133.78-36.376 43.58 15.2 92.34-10.534 103.906-55.396 60.67 21.479 120.561-36.812 102.571-97.998 23.594-5.393 42.8-20.752 53.52-42.417h90.321c0.276 0 0.5-0.214 0.5-0.502l0.026-384.497z" fill="#616B3E" p-id="62023" data-spm-anchor-id="a313x.search_index.0.i36.191e3a81Tctgs5" class="selected"></path></svg>