<?xml version="1.0" standalone="no"?><!DOCTYPE svg PUBLIC "-//W3C//DTD SVG 1.1//EN" "http://www.w3.org/Graphics/SVG/1.1/DTD/svg11.dtd"><svg t="1727493332026" class="icon" viewBox="0 0 1024 1024" version="1.1" xmlns="http://www.w3.org/2000/svg" p-id="6647" xmlns:xlink="http://www.w3.org/1999/xlink" width="200" height="200"><path d="M362.24426666 294.81848889H801.824c146.52373333 0 219.79306667 73.264 219.79306666 219.78986666 0 146.528-73.26826667 219.78986667-219.79306666 219.78986667H362.24426666c-146.5248 0-219.79306667-73.26186667-219.79306666-219.78986667 0-146.52586667 73.26826667-219.78986667 219.79306666-219.78986666z" fill="#3D3D3D" p-id="6648"></path><path d="M143.68213333 514.60835555C133.1328 661.12142222 83.4592 734.39822222-5.33333334 734.39822222h369.42613334L143.68213333 514.60835555z" fill="#3D3D3D" p-id="6649"></path><path d="M862.2656 562.66168889a138.72 138.72 0 0 1-80.95786667 26.1824H671.06346666l-20.016 65.8368h-65.45493333l40.54933333-133.4976H808.07466666a42.35306667 42.35306667 0 0 0 25.2544-8.47466667 41.90186667 41.90186667 0 0 0 15.984-22.3936 22.56853333 22.56853333 0 0 0-2.48-22.0832 24.736 24.736 0 0 0-20.224-8.09493333H644.64106666l63.80266667-67.69706667h132.49706667a79.23626667 79.23626667 0 0 1 64.83626666 26.14933333 74.41813333 74.41813333 0 0 1 8.85546667 72.03626667 134.1152 134.1152 0 0 1-52.53866667 72.03626667h0.17173334zM564.05973333 392.43982222h65.45706667L549.90186666 654.68088889h-65.45706666l79.61493333-262.24106667z m0 0H449.58186666L332.44906666 505.30168889V392.43982222H234.98666666v32.21226667h32.48746667V666.53155555l296.5856-274.09173333z" fill="#ffbd00" p-id="6650"></path></svg>