<?xml version="1.0" standalone="no"?><!DOCTYPE svg PUBLIC "-//W3C//DTD SVG 1.1//EN" "http://www.w3.org/Graphics/SVG/1.1/DTD/svg11.dtd"><svg t="1728613773448" class="icon" viewBox="0 0 1084 1024" version="1.1" xmlns="http://www.w3.org/2000/svg" p-id="18124" xmlns:xlink="http://www.w3.org/1999/xlink" width="211.71875" height="200"><path d="M0 301.296941C0 171.971765 104.026353 66.861176 232.327529 66.861176h619.580236C980.208941 66.861176 1084.235294 171.971765 1084.235294 301.176471v351.653647c0 129.505882-104.026353 234.375529-232.327529 234.375529H232.327529C104.026353 887.265882 0 782.456471 0 652.950588V301.296941z" fill="#DCF5F6" p-id="18125"></path><path d="M174.923294 291.900235a78.486588 78.486588 0 0 1 46.260706-100.171294L730.593882 4.758588a77.101176 77.101176 0 0 1 99.267765 46.682353l79.510588 220.340706a78.185412 78.185412 0 0 1-46.381176 99.990588L353.701647 558.983529a77.462588 77.462588 0 0 1-99.267765-46.682353l-79.510588-220.340705z" fill="#04BABE" p-id="18126"></path><path d="M0 438.031059C0 308.705882 104.026353 203.595294 232.327529 203.595294h619.580236C980.208941 203.595294 1084.235294 308.705882 1084.235294 438.031059v351.593412C1084.235294 919.130353 980.208941 1024 851.907765 1024H232.327529C104.026353 1024 0 919.130353 0 789.624471V438.031059z" fill="#B4EBED" p-id="18127"></path><path d="M813.176471 574.765176a38.972235 38.972235 0 0 0-38.731295 39.032471c0 21.684706 17.347765 39.092706 38.731295 39.092706a38.851765 38.851765 0 0 0 38.731294-39.092706 38.972235 38.972235 0 0 0-38.731294-39.032471z m-116.193883 39.032471c0-64.632471 52.043294-117.157647 116.193883-117.157647s116.193882 52.525176 116.193882 117.157647a116.615529 116.615529 0 0 1-116.193882 117.217882 116.615529 116.615529 0 0 1-116.193883-117.217882z" fill="#FFFFFF" p-id="18128"></path></svg>