<?xml version="1.0" standalone="no"?><!DOCTYPE svg PUBLIC "-//W3C//DTD SVG 1.1//EN" "http://www.w3.org/Graphics/SVG/1.1/DTD/svg11.dtd"><svg t="1727499953315" class="icon" viewBox="0 0 1024 1024" version="1.1" xmlns="http://www.w3.org/2000/svg" p-id="7672" xmlns:xlink="http://www.w3.org/1999/xlink" width="200" height="200"><path d="M864.853333 881.066667H433.066667c-11.946667 0-21.333333 9.386667-21.333334 21.333333s9.386667 21.333333 21.333334 21.333333h432.213333c11.946667 0 21.333333-9.386667 21.333333-21.333333s-9.813333-21.333333-21.76-21.333333zM910.933333 270.933333L746.666667 106.24c-8.533333-8.533333-21.76-8.533333-30.293334 0L113.066667 709.546667a21.76 21.76 0 0 0-6.4 14.933333v164.693333c0 11.946667 9.386667 21.333333 21.333333 21.333334h164.693333c5.546667 0 11.093333-2.133333 14.933334-6.4L910.933333 301.226667a20.949333 20.949333 0 0 0 0-30.293334z m-627.2 597.333334H149.333333V733.866667l417.706667-417.706667 134.4 134.4-417.706667 417.706667z m447.573334-448L596.906667 285.866667l134.4-134.4 134.4 134.4-134.4 134.4z" fill="#666666" p-id="7673"></path></svg>